<?xml version="1.0" encoding="UTF-8"?>
<svg width="585px" height="535px" viewBox="0 0 585 535" version="1.1" xmlns="http://www.w3.org/2000/svg" xmlns:xlink="http://www.w3.org/1999/xlink">
    <!-- Generator: Sketch 51.3 (57544) - http://www.bohemiancoding.com/sketch -->
    <title>Group 2 Copy 2</title>
    <desc>Created with Sketch.</desc>
    <defs>
        <polygon id="path-1" points="8.82 0 86.24 0 98 39 0 39"></polygon>
        <path d="M13,0 L391,0 C398.179702,3.05653909e-14 404,5.82029825 404,13 L404,233 L0,233 L0,13 C-8.79259876e-16,5.82029825 5.82029825,1.31888981e-15 13,0 Z" id="path-3"></path>
    </defs>
    <g id="Page-1" stroke="none" stroke-width="1" fill="none" fill-rule="evenodd">
        <g id="Group-2-Copy-2">
            <rect id="Rectangle-Copy-3" fill="#FFFFFF" x="0" y="0" width="585" height="535"></rect>
            <path d="M66.8640873,509.733708 L46,509.733708 C37.7157288,509.733708 31,503.017979 31,494.733708 L31,40 C31,31.7157288 37.7157288,25 46,25 L540,25 C548.284271,25 555,31.7157288 555,40 L555,494.733708 C555,503.017979 548.284271,509.733708 540,509.733708 L520.462638,509.733708" id="Path-94" stroke="#000000" stroke-linecap="round"></path>
            <g id="Group" transform="translate(84.000000, 215.000000)">
                <g id="Rectangle-8" transform="translate(160.000000, 264.000000)">
                    <mask id="mask-2" fill="white">
                        <use xlink:href="#path-1"></use>
                    </mask>
                    <path stroke="#000000" stroke-width="2" d="M9.61910006,1 L1.25140775,38 L96.6539878,38 L85.4970647,1 L9.61910006,1 Z"></path>
                    <path d="M9.70231197,1 L5.20918447,18.5 L91.7487902,18.5 L87.2556627,1 L9.70231197,1 Z" stroke="#000000" stroke-width="2" mask="url(#mask-2)"></path>
                </g>
                <rect id="Rectangle-7" stroke="#000000" stroke-width="2" fill="#FFFFFF" x="1" y="1" width="415" height="273" rx="13"></rect>
                <g id="Path-3" transform="translate(7.000000, 9.000000)">
                    <mask id="mask-4" fill="white">
                        <use xlink:href="#path-3"></use>
                    </mask>
                    <path stroke="#000000" stroke-width="2" d="M1,232 L403,232 L403,13 C403,6.372583 397.627417,1 391,1 L13,1 C6.372583,1 1,6.372583 1,13 L1,232 Z"></path>
                </g>
                <g id="Group-31" transform="translate(120.000000, 84.000000)" stroke="#000000" stroke-width="2">
                    <rect id="Rectangle-56" x="1" y="1" width="176" height="106"></rect>
                    <path d="M1.49435028,17 L176,17" id="Line-11" stroke-linecap="square"></path>
                    <path d="M1.49435028,35 L176,35" id="Line-11-Copy" stroke-linecap="square"></path>
                    <path d="M1.49435028,54 L176,54" id="Line-11-Copy-2" stroke-linecap="square"></path>
                    <path d="M1.49435028,72 L176,72" id="Line-11-Copy-3" stroke-linecap="square"></path>
                    <path d="M1.49435028,90 L176,90" id="Line-11-Copy-4" stroke-linecap="square"></path>
                    <path d="M22.2490584,107 L22.2490584,17" id="Line-11-Copy-4" stroke-linecap="square"></path>
                    <path d="M109.249058,107 L109.249058,17" id="Line-11-Copy-8" stroke-linecap="square"></path>
                    <path d="M65.2490584,107 L65.2490584,17" id="Line-11-Copy-6" stroke-linecap="square"></path>
                    <path d="M154.208176,107 L154.208176,17" id="Line-11-Copy-9" stroke-linecap="square"></path>
                    <path d="M44.2081764,107 L44.2081764,17" id="Line-11-Copy-5" stroke-linecap="square"></path>
                    <path d="M131.208176,107 L131.208176,17" id="Line-11-Copy-10" stroke-linecap="square"></path>
                    <path d="M87.2081764,107 L87.2081764,17" id="Line-11-Copy-7" stroke-linecap="square"></path>
                </g>
                <rect id="Rectangle-9" stroke="#000000" stroke-width="2" x="140" y="302" width="141" height="8" rx="4"></rect>
            </g>
        </g>
    </g>
</svg>