<?xml version="1.0" encoding="UTF-8"?>
<svg width="972px" height="320px" viewBox="0 0 972 320" version="1.1" xmlns="http://www.w3.org/2000/svg" xmlns:xlink="http://www.w3.org/1999/xlink">
    <!-- Generator: Sketch 51.3 (57544) - http://www.bohemiancoding.com/sketch -->
    <title>Group 16 Copy 4</title>
    <desc>Created with Sketch.</desc>
    <defs>
        <rect id="path-1" x="0" y="0" width="972" height="320"></rect>
    </defs>
    <g id="Page-1" stroke="none" stroke-width="1" fill="none" fill-rule="evenodd">
        <g id="Group-16-Copy-4">
            <mask id="mask-2" fill="white">
                <use xlink:href="#path-1"></use>
            </mask>
            <use id="Mask" fill="#FFFFFF" xlink:href="#path-1"></use>
            <g id="friedolin_BW" mask="url(#mask-2)">
                <g transform="translate(583.000000, 111.000000)">
                    <g id="Group-3" stroke="none" stroke-width="1" fill-rule="evenodd">
                        <path d="M277.80138,91.3145492 C274.719671,91.263722 274.179669,88.8337017 275.863158,87.4847661 C280.821213,83.5436475 290.865093,80.0002712 298.13664,66.4504068 C302.00103,59.2418305 308.744629,65.6234576 306.318637,72.9248136 C304.004342,79.8881288 299.632092,85.6670915 295.435825,87.6082034 C292.628939,88.9151864 284.675961,91.4266915 277.80138,91.3145492 Z M365.89084,82.2366644 C361.924395,90.5481085 353.105967,108.335986 345.103167,127.205756 C337.251439,145.687464 323.536831,159.38981 311.200353,163.412414 C301.320403,166.618556 292.868404,160.390217 288.419012,150.10781 C286.897845,146.604773 289.883125,144.900854 292.018222,147.422847 C299.824147,156.612875 312.674912,158.858142 327.619794,138.559566 C336.427775,126.582115 343.831108,106.047959 352.62784,89.3226102 C353.197574,88.1890847 354.062221,86.8312746 354.713116,85.5856068 C355.668567,83.7582508 353.956149,81.3790576 351.031941,84.8917763 C346.724781,90.0680746 336.209203,107.416258 331.540434,115.646217 C326.867648,123.897153 318.435739,135.609173 313.320183,132.922597 C308.215877,130.227146 314.978761,120.792664 318.019487,116.411851 C321.547984,111.338014 337.505369,88.1382576 342.55021,82.2068136 C347.578981,76.2737559 354.078292,69.0853492 359.717779,70.6262983 C363.21574,71.5863661 367.609686,78.6521424 365.89084,82.2366644 Z M295.975024,121.834217 C299.051108,113.114542 310.763208,91.6711458 325.495142,78.6521424 C331.617577,73.2515593 335.196699,74.5787119 330.156679,81.4395661 C323.60192,90.3448 312.664466,107.569546 306.018903,124.51918 C302.682462,133.383268 289.965089,138.855654 295.975024,121.834217 Z M210.331645,174.532258 C204.925999,180.076447 195.569979,185.447986 193.544971,191.185803 C191.943447,195.719098 191.852643,199.9676 191.516749,202.029729 C191.0338,204.960759 188.104771,204.735668 187.224857,202.56059 C186.807801,201.539207 186.228424,199.517417 185.191009,196.649315 C184.255648,194.075688 181.026082,192.676732 177.939552,192.676732 C173.968286,192.676732 167.352456,193.187424 164.901553,193.187424 C163.222885,193.187424 162.089042,191.267288 164.173514,189.949817 C166.584238,188.428231 169.142016,185.743268 169.386303,180.976007 C169.544607,177.972366 176.709279,177.677085 182.521534,177.677085 C185.333242,177.677085 190.845764,183.272908 194.914262,181.047003 C198.981154,178.831586 203.482779,176.328956 206.370022,169.865844 C210.367003,160.941247 220.709812,138.283647 223.63402,131.891532 C229.818331,118.363451 222.047764,115.564732 219.124359,115.564732 C214.781038,115.564732 213.327372,117.750298 207.666992,117.197654 C202.907419,116.708746 197.883471,115.320278 194.786494,114.615153 C192.590324,114.114949 191.354427,114.502203 189.645223,115.503417 C188.451111,116.218224 187.173428,117.096807 185.917441,117.821295 C182.160729,119.976203 166.249148,122.202108 172.259082,118.219844 C178.270624,114.247261 180.227329,109.489681 184.540114,108.764386 C190.382101,107.784149 205.226536,106.763573 219.053645,108.764386 C231.816017,110.612719 237.465951,119.843892 231.623159,132.678142 C218.086944,162.412007 215.737292,168.988068 210.331645,174.532258 Z M325.158444,190.450827 C322.199683,190.450827 319.270653,190.226542 316.555374,191.47221 C313.60063,192.717878 311.65839,194.657376 308.968022,196.158793 C308.199805,196.627532 307.249176,196.393566 307.01614,195.627125 C306.75096,194.933295 306.75096,193.688434 307.249176,193.187424 C309.944366,189.981281 309.206684,186.080502 310.442582,182.364475 C311.423747,178.667003 314.867064,176.21762 318.019487,174.011078 C318.732258,173.522169 319.993067,174.011078 320.231728,174.726692 C320.989499,179.892502 323.409866,183.85379 325.870412,188.031295 C326.348538,189.02202 326.348538,190.450827 325.158444,190.450827 Z M302.127995,186.304786 C301.827458,186.815478 301.14683,187.285831 300.384238,187.050251 C298.187265,186.304786 296.463597,185.080095 294.001445,184.569403 C292.318759,184.345119 290.127411,183.85379 290.325894,182.619417 C291.078844,178.667003 295.481629,176.21762 299.133072,174.941295 C299.896468,174.726692 301.14683,175.460861 301.391117,176.676678 C302.357817,179.892502 303.089874,183.109939 302.127995,186.304786 Z M240.146676,75.8042102 C235.085762,75.0482576 230.448333,70.1874102 228.612165,66.9304407 C226.771979,63.6734712 224.452863,58.3834169 222.704284,56.0970034 C220.949277,53.8299525 216.800421,47.5612746 207.97235,49.4088 C205.088321,50.0114644 202.846348,50.6334915 195.77248,49.449139 C188.699416,48.2655932 168.434871,44.9577966 164.901553,44.5786102 C161.361807,44.1913559 154.461511,44.7222169 149.685867,44.2930102 C147.825592,44.1203593 147.479251,42.4358034 149.375687,41.5983661 C152.651057,40.1268 161.437343,37.9218712 172.732388,38.1461559 C178.052052,38.2486169 188.516201,39.1263932 197.476862,39.1263932 C208.71405,39.1263932 228.439397,35.0828136 234.333617,34.4914441 C241.589896,33.7758305 252.935566,37.6766102 258.944697,39.8412 C268.891344,43.4458915 279.067813,40.8520949 278.090667,46.7448136 C276.499589,56.3325831 279.346654,60.2018983 277.323253,64.9393085 C272.746092,75.6396271 252.294313,77.6113966 240.146676,75.8042102 Z M270.809477,126.419146 C267.935894,130.411092 262.947303,135.272746 257.237101,138.038386 C249.812875,141.633397 242.144362,141.908508 237.771309,141.989993 C235.080941,142.031139 235.670765,140.877444 237.527022,136.578922 C244.071334,121.487302 241.224269,114.564325 236.778894,109.550997 C234.002544,106.415851 234.39951,104.087485 246.517415,107.467892 C253.758426,109.48 257.160761,112.879769 266.150351,117.791444 C273.682256,121.896339 273.367255,122.865281 270.809477,126.419146 Z M186.807801,163.71899 C187.559947,161.799661 189.238615,161.247824 190.855407,161.391431 C193.062826,161.574569 195.143281,162.952549 193.673543,165.699634 C191.679874,169.457614 190.011653,171.784366 188.658434,171.784366 C187.458697,171.784366 186.20271,171.111512 185.917441,169.568949 C185.571904,167.681085 186.390746,164.780712 186.807801,163.71899 Z M190.057457,136.44661 C192.590324,134.515986 200.741786,134.526475 203.258581,135.455078 C205.775377,136.374 204.189121,141.408305 202.09822,142.235254 C200.018568,143.06301 185.58235,139.847186 190.057457,136.44661 Z M126.239166,114.656298 C118.351277,114.155288 112.076966,112.114136 110.947944,111.521153 C109.824547,110.928976 110.286602,109.499363 111.4775,109.520339 C118.051544,109.612312 127.037116,109.305736 129.875341,108.764386 C132.936157,108.19238 133.494641,106.047959 131.660081,106.089105 C127.072473,106.171397 122.343436,105.946305 115.504212,104.108461 C107.861414,102.045525 94.1869842,96.2560746 79.3385319,90.2625085 C51.6497603,79.0716678 46.8797412,75.0894034 43.6164246,67.5129356 C41.785078,63.2644339 41.7505243,55.8727186 45.8640229,52.4721424 C46.8090267,51.6855322 47.7090303,52.1357153 47.5820655,53.136122 C46.8194731,59.0369085 46.6169723,62.7545492 51.824136,65.8582305 C57.3454974,69.1361763 76.944683,71.8421153 86.0114157,82.2068136 C88.9549096,85.3911729 93.6172497,93.8365424 104.606937,94.2447729 C105.15176,94.2649424 105.430601,93.5299661 104.769259,93.2435593 C92.2342978,87.7913424 90.3129508,68.6053153 100.982011,57.4661085 C111.263749,46.7238373 136.684029,44.3954712 145.140849,65.4709763 C146.304425,68.3802237 147.576484,69.5137492 151.191766,71.3007661 C154.441422,72.9038373 158.402241,74.5787119 160.527696,75.4766576 C162.272257,76.2116339 163.726727,76.0276881 165.34834,75.1402305 C166.965936,74.2519661 169.279428,73.2515593 172.40694,72.2301763 C176.453742,70.9022169 179.901881,71.9244068 181.982336,75.3241763 C189.625938,87.7913424 195.437389,90.7732 200.196962,98.206061 C200.75625,99.0951322 200.496695,100.044712 199.321869,100.166536 C193.982116,100.718373 190.627192,100.371458 188.525844,98.6352678 C185.744672,96.3173898 181.880282,92.6312136 172.783013,87.4032814 C163.680923,82.1551797 151.227123,77.7953424 149.391759,77.1007051 C147.795056,76.4980407 146.80907,76.8142983 146.447461,78.1116 C143.949951,87.0555593 136.973316,93.4484814 128.527747,95.2855186 C127.128723,95.5920949 127.063634,97.1540203 128.420068,97.6856881 C131.075078,98.7175593 137.767248,99.4525356 141.610745,99.6768203 C145.45585,99.9220814 148.664524,99.7994508 150.32712,97.8994847 C151.989716,96.0011322 152.941148,94.6530034 155.320532,94.2851119 C158.550099,93.7752271 163.238153,96.4505085 166.344773,99.0644746 C167.408706,99.9430576 167.06799,101.41301 165.521109,101.493688 C161.19386,101.688122 159.114208,101.985017 157.126165,104.618346 C150.887211,112.858793 136.139206,115.278325 126.239166,114.656298 Z M98.8453064,103.843031 C97.4824438,103.679254 85.6956109,101.738949 79.9235342,99.4113898 C72.5603797,96.7361085 64.1292746,91.9978915 59.9490792,88.2407186 C59.0193434,87.4032814 59.720864,86.2802441 60.7992612,86.7296203 C69.8250116,90.5174508 92.4480486,99.3904136 99.4761125,102.372271 C100.417098,102.780502 99.9791502,103.985831 98.8453064,103.843031 Z M75.6975351,123.498603 C73.8316348,124.407844 70.7957298,123.692231 70.2517098,121.283186 C69.7076897,118.872529 71.0143021,116.238393 73.2924362,115.912454 C75.5705703,115.584902 77.1720946,117.055661 77.6253107,118.894312 C78.0777232,120.731349 77.5634355,122.590169 75.6975351,123.498603 Z M58.7188065,40.4753288 C60.8699758,39.8307119 61.7908723,39.5757695 62.949627,37.9831864 C63.956506,36.5947186 65.1514215,34.9198441 66.9160714,35.7169424 C68.7160786,36.5438915 69.5148318,40.4132068 65.2992792,44.2526712 C60.0559547,49.020739 54.6004864,49.654061 53.4353032,46.2736542 C52.2709235,42.9045424 55.8355806,41.3329356 58.7188065,40.4753288 Z M72.9260062,7.80075254 C74.6761918,6.83019661 75.8863752,8.13717966 74.5685128,10.3114508 C71.3654642,15.6006983 71.2537674,19.0835661 70.9998378,23.309478 C70.7402832,27.4958576 65.6849951,28.0073559 65.1562429,24.0864068 C64.3840077,18.2969559 66.9675002,11.0875729 72.9260062,7.80075254 Z M80.9505026,50.1445831 C83.1482793,50.1946034 84.3431947,49.6435729 86.3971315,48.0300136 C91.0345608,44.4156407 95.5610968,40.4648407 102.278177,41.3426169 C103.569522,41.5168814 103.696487,42.832739 102.461392,43.5370576 C98.7384309,45.6516271 94.1267161,49.0312271 93.1302835,52.1655661 C92.5750134,53.9114373 92.5557276,55.8009153 93.0033187,58.1389627 C93.6638571,61.5605153 90.5821483,62.5915797 88.3144606,61.2434508 C86.046773,59.895322 80.7271088,54.6577085 76.944683,55.842061 C74.3041367,56.6690102 73.5576159,58.2615932 69.8442974,57.8331932 C61.7241756,56.8941017 63.0163237,50.5423254 66.9675002,49.3781424 C70.8873373,48.2147661 76.0237864,50.0316339 80.9505026,50.1445831 Z M140.951011,28.4664136 C141.8703,28.0380136 143.111823,28.1194983 144.565489,28.1703254 C149.83935,28.3236136 152.753111,23.5958847 156.083928,23.1053627 C159.40912,22.6156475 162.114756,22.9125424 164.464408,22.7390847 C166.827721,22.5648203 167.931833,22.3195593 168.87764,22.3808746 C169.823448,22.4518712 170.281485,23.7394915 169.447375,24.4639797 C166.442006,27.1182847 161.21877,27.5168339 158.036615,29.2522169 C154.847227,30.9884068 151.598375,32.693939 148.502202,32.693939 C145.247724,32.693939 141.22503,32.1114441 139.903149,31.4999051 C138.433411,30.8149492 138.926003,29.4063119 140.951011,28.4664136 Z M181.458405,27.3635458 C185.917441,24.8318712 193.637382,22.3913627 200.909733,21.9113288 C208.180476,21.4208068 213.932463,22.0742983 220.395614,21.2989831 C228.052877,20.3905492 228.684487,22.6664746 226.604032,24.0355797 C224.611167,25.3619254 220.593294,26.894 214.883092,28.0589898 C209.39066,29.1820271 193.255684,30.3050644 189.152632,30.518861 C185.39351,30.7229763 182.1093,31.049722 180.558401,29.497478 C180.177507,29.1094169 179.653576,28.3849288 181.458405,27.3635458 Z M309.058826,46.4785763 C311.13446,46.6423525 321.497358,50.1236068 324.171655,52.4205085 C325.484696,53.5451593 327.86408,57.9550169 324.670675,60.1607525 C321.481287,62.3455119 318.344131,62.6730644 314.794742,61.3862508 C311.245353,60.0792678 307.503106,49.6742305 307.01614,48.2551051 C306.526763,46.8262983 306.983997,46.3148 309.058826,46.4785763 Z M313.361165,37.8613627 C315.573406,37.3708407 322.636827,36.8698305 325.870412,40.5971525 C326.603272,41.4337831 326.704522,44.1913559 322.677809,43.3942576 C318.111095,42.4858237 314.032953,41.3111525 311.632676,39.8621763 C310.513296,39.1772203 311.15937,38.3502712 313.361165,37.8613627 Z M347.685856,207.972468 C349.923811,206.746969 352.903466,208.22741 353.086681,210.903498 C353.279539,213.813553 349.832204,215.262529 347.685856,213.936183 C345.540312,212.608224 345.454329,209.188285 347.685856,207.972468 Z M293.021084,220.756698 C291.902508,222.685708 288.439101,223.094746 287.122042,221.348875 C285.489982,219.183478 287.60499,215.569105 290.615985,215.774027 C293.615729,215.966847 294.144481,218.816393 293.021084,220.756698 Z M275.039494,190.797742 C272.567698,192.595247 269.15572,192.921993 268.246074,190.226542 C267.340445,187.530285 270.07742,185.692441 273.514309,185.999017 C276.947984,186.285424 277.516111,188.991363 275.039494,190.797742 Z M200.222676,225.933803 C202.34331,224.309756 206.126539,227.198834 207.026543,229.88541 C207.931368,232.580861 205.957789,234.285586 203.35501,233.386834 C201.12268,232.622007 198.101239,227.566725 200.222676,225.933803 Z M129.44784,210.1064 C127.245241,209.453715 126.523631,206.982549 128.3598,205.378671 C130.199985,203.7756 134.883218,202.172529 136.048402,204.848617 C137.218406,207.523092 131.644813,210.749403 129.44784,210.1064 Z M153.312399,175.992529 C151.28257,175.992529 145.553083,174.664569 143.798076,173.745647 C142.038247,172.827532 140.986368,171.632692 141.40262,169.580244 C141.814853,167.52699 143.941112,166.925132 146.004692,167.375315 C148.974703,168.007831 154.395618,171.428576 155.3358,173.215593 C156.276786,175.00261 154.944459,175.992529 153.312399,175.992529 Z M11.8896904,98.0430915 C9.00164317,99.564678 6.06779215,99.1661288 5.24894958,96.5319932 C4.43573204,93.8865627 6.1642211,92.3246373 8.53396273,91.4670305 C10.9037044,90.5997424 13.7298764,90.1197085 14.8958632,92.3456136 C16.0602429,94.5916881 14.7777377,96.5319932 11.8896904,98.0430915 Z M28.1877914,64.9393085 C26.2343014,65.2563729 23.6612554,62.7755254 23.5246477,60.9473627 C23.3872365,59.1200068 25.2740297,59.2724881 27.6437714,59.8340068 C30.007888,60.4060136 31.5595906,60.9158983 31.6407517,62.4374847 C31.7275377,63.9590712 30.1300313,64.6230508 28.1877914,64.9393085 Z M355.506244,132.432881 C358.364559,122.078671 361.172249,110.581254 364.654942,101.525153 C368.067723,92.662678 374.917394,86.7086441 374.917394,77.9986508 C374.917394,73.6194508 371.301308,71.4943932 367.853972,67.7783661 C364.395387,64.0720203 362.819577,61.1305017 359.055634,60.8045627 C351.936766,60.1914102 345.823974,69.6363797 340.831364,71.3717627 C339.600288,71.8009695 338.78707,70.861878 338.359569,69.9018102 C337.846084,68.7577966 340.535649,61.0804814 340.271273,58.8642576 C340.017343,56.6480339 339.21859,52.8295458 337.485279,50.8795593 C335.755987,48.9190847 332.206598,46.805322 331.769453,45.2732475 C331.321862,43.751661 331.199719,41.5362441 330.538377,39.1062237 C329.878642,36.6858847 327.152917,33.4289153 321.212893,32.4688475 C315.278494,31.5087797 302.113531,34.5519525 293.280638,31.9993017 C284.442924,29.4563322 262.692569,18.6640407 258.976037,16.9585085 C255.257897,15.2529763 250.966808,13.0181966 247.960635,12.3130712 C244.956873,11.6184339 238.523455,9.93468475 233.763882,9.61762034 C226.110637,9.08675932 213.164246,11.3126644 202.861616,12.0476407 C198.224186,12.3130712 193.549793,11.3126644 189.152632,11.7926983 C183.50752,12.3130712 175.956329,13.804 172.701852,14.518 C145.185849,20.5736881 132.204101,20.9617492 119.577532,15.8249831 C112.193485,12.8237627 108.365255,12.885078 106.574891,11.5780949 C105.130867,10.5155661 102.924251,8.27029831 97.4318186,4.5736339 C91.9345644,0.886650847 86.4276674,-0.205728814 83.9004251,0.090359322 C81.3731829,0.387254237 80.2698749,1.1424 78.6217433,1.54014237 C76.9792367,1.92820339 75.1695866,1.79589153 72.2751107,2.42921356 C69.387867,3.07221695 63.9765954,5.80881356 61.2717631,11.5780949 C58.5556808,17.3368881 59.6139886,23.1779729 60.6562249,27.2304271 C60.9101545,28.2219593 60.7325645,28.9980814 59.5521134,30.2235797 C58.5500558,31.2643254 45.9042016,43.0675119 43.3874058,46.4987458 C40.8698064,49.9291729 39.6089978,54.3406441 38.9789953,55.842061 C38.4389931,57.1490441 37.2545241,57.5976136 35.998537,57.3329898 C30.1300313,55.8727186 23.3928615,52.9925153 20.6928507,55.9840542 C17.9920363,58.9764 20.3569565,64.0921898 23.4282188,66.6141831 C26.4994811,69.1361763 28.9704731,67.5944203 33.0486144,67.4209627 C37.1275593,67.2475051 41.1807898,71.5863661 41.6428453,76.0591525 C41.6428453,76.8142983 41.6428453,76.8142983 41.1807898,77.2741627 C35.0527296,81.4395661 25.0249216,84.7893153 18.032215,86.1777831 C10.0800403,87.7711729 5.81305898,87.2201424 1.84661453,90.5481085 C-1.95670426,93.7340814 0.484555511,101.41301 5.80261251,102.189132 C11.518439,103.004786 16.3197975,96.899078 21.6941047,94.5610305 C30.735123,90.6295932 41.8774891,87.0152203 49.7589492,86.3827051 C50.5062736,86.3310712 51.3307412,87.1370441 53.2263738,88.5166373 C55.128435,89.8946169 61.6775683,94.8571186 70.8270692,99.6768203 C71.6145724,100.106027 72.2244855,100.667546 72.0364491,101.41301 C70.7957298,106.201247 70.770819,110.459431 70.0942091,112.951573 C69.4127778,115.43242 68.2074159,116.443315 67.5870562,119.424366 C66.9675002,122.406224 68.3046484,125.99962 72.2100212,127.041173 C76.115394,128.073044 79.7756765,126.153715 80.2136246,122.406224 C80.6507693,118.648244 78.6980829,117.024197 79.6647832,112.951573 C80.6258584,108.866847 81.261486,106.334366 83.0301538,105.537268 C84.7956073,104.731295 87.9174948,105.588902 92.0422434,108.601417 C97.8737846,112.849112 106.07105,118.117383 116.730467,120.741837 C127.388278,123.366292 135.219916,123.385654 138.70743,124.284407 C143.538521,125.520393 146.884606,128.82819 155.046513,132.106136 C163.202796,135.373593 171.216846,136.129546 173.758553,137.355044 C183.380555,142.000481 187.759234,143.388949 198.967493,146.441803 C202.921884,147.51482 198.75776,156.050549 196.453911,157.265559 C193.632561,158.776658 189.65567,157.060637 185.917441,158.624176 C182.180015,160.17642 182.246712,168.007831 181.036528,171.040515 C180.059381,173.500386 174.456055,173.481024 172.747656,173.481024 C168.292638,173.481024 163.517797,172.888041 159.480638,171.275288 C155.930446,169.856163 153.428918,168.364427 148.959436,166.108671 C142.566999,162.892041 136.740279,164.208705 134.725718,168.364427 C133.063122,171.784366 135.214291,174.869492 138.453501,176.451586 C141.76905,178.074827 151.328374,177.656915 155.381604,179.831993 C157.731256,181.088149 160.00939,185.550447 157.797149,189.02202 C152.900166,196.393566 142.689143,197.720719 136.699297,199.426251 C134.401074,200.089424 127.388278,201.151146 125.273269,202.56059 C119.562264,206.34842 122.857724,213.118915 127.617297,214.047519 C131.191597,214.751837 134.313484,213.097939 136.434921,211.598136 C145.078974,205.470644 152.773201,202.929288 159.30787,201.315729 C165.84736,199.702169 173.479712,201.192292 178.11232,204.991417 C183.192519,209.157627 191.069158,219.532007 193.255684,222.716366 C195.289532,225.668373 196.87177,229.435227 198.224186,231.967708 C202.632597,240.258983 208.892443,238.594597 210.988166,235.285993 C212.909513,232.253308 211.979777,229.180285 210.235217,227.434414 C208.496281,225.677247 203.049652,222.921288 199.912497,218.03059 C196.768913,213.139085 194.278635,202.091044 196.768913,198.599302 C199.267226,195.117241 211.882545,184.978441 218.127123,175.297892 C224.382148,165.639125 230.879853,150.322414 231.074318,149.894014 C231.512266,148.8928 232.244322,147.769763 233.519595,147.667302 C249.024568,146.370807 261.981406,145.482542 275.23878,139.10979 C276.845126,138.334475 278.126024,138.68139 278.498079,141.908508 C278.903884,145.482542 279.946924,151.038027 281.584609,155.040461 C282.031397,156.121546 281.402198,156.510414 280.059425,156.510414 C276.983341,156.510414 273.331898,156.786332 272.248679,160.278881 C271.398497,163.004183 273.112522,165.618149 275.23878,166.496732 C278.324507,167.773058 281.543627,166.435417 283.008544,166.108671 C286.664808,165.311573 289.288479,166.629044 290.325894,167.375315 C292.460992,168.906583 293.34171,169.865844 292.318759,172.275695 C290.254376,177.156712 282.134254,180.199078 277.541825,181.608522 C273.401809,182.884847 268.20027,183.26242 265.292133,185.56981 C261.452654,188.612983 263.049356,195.249553 268.779647,195.882875 C274.866725,196.556536 278.090667,191.716664 283.714886,188.530692 C290.493038,184.691227 301.752726,193.024454 299.397448,199.089017 C298.532802,201.335092 295.044485,206.644508 292.853137,208.943024 C290.660985,211.250414 286.003466,213.078576 284.10703,214.997905 C282.204969,216.907553 281.234251,220.542095 282.880775,223.369858 C285.535786,227.914447 291.902508,227.751478 294.622608,224.584868 C297.139404,221.665939 296.78342,219.511031 299.14834,214.467044 C301.512457,209.412569 310.656333,198.762271 320.231728,198.363722 C329.80632,197.975661 339.193679,204.450068 343.393964,213.2004 C345.2454,217.060034 348.540056,220.154034 353.370343,218.234705 C358.202237,216.304888 358.720543,210.749403 356.268837,207.472264 C353.818738,204.184637 349.373363,203.745749 344.868523,200.304027 C340.353237,196.8736 326.612914,185.621444 332.938654,176.21762 C351.530157,148.555566 352.770876,142.317546 355.506244,132.432881 Z" id="Fill-1" stroke="#000000" stroke-width="2"></path>
                    </g>
                    <path d="M105.652353,79.9727491 C105.005118,78.5323927 106.361116,77.7420804 107.453427,78.5123544 C114.025666,83.3007177 124.381437,83.3007177 130.14663,79.4854165 C131.420326,78.6341875 132.816277,79.6088527 132.067561,81.0283692 C126.951203,90.6860506 110.284484,90.198718 105.652353,79.9727491 Z M106.926848,65.8112489 C112.59056,57.0568961 129.357961,57.493732 133.179848,69.4429988 C133.58497,70.7214453 132.300886,71.2897328 131.238141,70.4369008 C124.381437,64.9696383 114.895838,65.1211282 108.707146,67.5161114 C107.271242,68.063559 106.057475,67.1602304 106.926848,65.8112489 Z M139.976622,73.6422347 C140.472037,63.032331 133.048004,55.3824919 122.036207,54.1457251 C111.002036,52.9281952 101.212796,59.4206194 99.3014526,70.5996122 C97.4004973,81.7585665 104.580819,92.4301883 118.274249,92.9784375 C132.037996,93.5066483 139.460432,84.2537414 139.976622,73.6422347 Z" id="Fill-4" stroke="#000000" stroke-width="2"></path>
                </g>
            </g>
            <path d="M659.565146,295 L45,295 C36.7157288,295 30,288.284271 30,280 L30,43 C30,34.7157288 36.7157288,28 45,28 L926.207565,28 C934.491837,28 941.207565,34.7157288 941.207565,43 L941.207565,133.678997" id="Path-93" stroke="#000000" stroke-linecap="round" stroke-linejoin="round" mask="url(#mask-2)"></path>
        </g>
    </g>
</svg>