<?xml version="1.0" encoding="UTF-8"?>
<svg width="681px" height="500px" viewBox="0 0 681 500" version="1.1" xmlns="http://www.w3.org/2000/svg" xmlns:xlink="http://www.w3.org/1999/xlink">
    <!-- Generator: Sketch 51.3 (57544) - http://www.bohemiancoding.com/sketch -->
    <title>Group 16 Copy 5</title>
    <desc>Created with Sketch.</desc>
    <defs>
        <rect id="path-1" x="0" y="0" width="681" height="500"></rect>
        <circle id="path-3" cx="35.9544558" cy="35.815446" r="35.8074309"></circle>
        <circle id="path-5" cx="35.9544558" cy="35.815446" r="35.8074309"></circle>
        <circle id="path-7" cx="35.9544558" cy="35.815446" r="35.8074309"></circle>
        <circle id="path-9" cx="35.9544558" cy="35.815446" r="35.8074309"></circle>
        <circle id="path-11" cx="35.9544558" cy="35.815446" r="35.8074309"></circle>
        <circle id="path-13" cx="35.9544558" cy="35.815446" r="35.8074309"></circle>
        <circle id="path-15" cx="35.9544558" cy="35.815446" r="35.8074309"></circle>
    </defs>
    <g id="Page-1" stroke="none" stroke-width="1" fill="none" fill-rule="evenodd">
        <g id="Group-16-Copy-5">
            <mask id="mask-2" fill="white">
                <use xlink:href="#path-1"></use>
            </mask>
            <use id="Mask" fill="#FFFFFF" xlink:href="#path-1"></use>
            <g id="Group-5-Copy" mask="url(#mask-2)">
                <g transform="translate(443.692254, 346.247305) rotate(31.000000) translate(-443.692254, -346.247305) translate(349.192254, 150.747305)">
                    <rect id="Rectangle-13" stroke="#000000" stroke-width="2" x="1" y="1" width="186.275325" height="388.954227" rx="30"></rect>
                    <rect id="Rectangle-15" stroke="#000000" stroke-width="2" x="79.1908453" y="20.5477113" width="29.8936343" height="3.14413456" rx="1.57206728"></rect>
                    <circle id="Oval" stroke="#000000" stroke-width="2" cx="66.3593358" cy="22.1197786" r="3.60089419"></circle>
                    <circle id="Oval" stroke="#000000" stroke-width="2" cx="93.623249" cy="370.377688" r="12.3459229"></circle>
                    <circle id="Oval" stroke="#000000" stroke-width="2" cx="95.1664894" cy="9.77385567" r="2.57206728"></circle>
                    <rect id="Rectangle-11" stroke="#000000" stroke-width="2" x="9.2306153" y="45.2395572" width="169.814094" height="301.503939"></rect>
                    <g id="Group-Copy-3" stroke="none" stroke-width="1" fill-rule="evenodd" transform="translate(56.585480, 137.862806)">
                        <g id="Clipped">
                            <mask id="mask-4" fill="white">
                                <use xlink:href="#path-3"></use>
                            </mask>
                            <g id="SVGID_11_"></g>
                            <path d="M66.6150341,54.3748926 C66.5415216,45.9631065 65.6779952,37.7248097 63.6960992,29.4355443 C61.9994315,22.3411015 57.6739582,16.9119611 51.5145939,12.9805145 C51.1764366,12.7648779 50.8265173,12.5678645 50.4854194,12.3571288 C48.8034543,11.3161923 48.2153546,10.323284 49.0004677,8.9696745 C49.4523243,8.27963751 51.1029241,8.00127032 52.5976775,9.16080691 C55.6606969,11.5377099 59.1638108,14.056737 61.471122,17.1393596 C66.7806822,24.2289016 67.9235559,28.8150991 68.7125897,36.3564977 C69.2203158,41.2043997 69.2879473,44.8388559 69.4614367,48.6811073 L66.6150341,54.3748926 Z" id="Shape" fill="#000000" fill-rule="nonzero" opacity="0.2" mask="url(#mask-4)"></path>
                        </g>
                        <g id="Clipped">
                            <mask id="mask-6" fill="white">
                                <use xlink:href="#path-5"></use>
                            </mask>
                            <g id="SVGID_11_"></g>
                            <path d="M34.6625968,71.6032736 C36.1377469,62.292675 36.6317506,60.9037795 34.7027836,50.944311 C34.3479634,49.1123804 35.0478021,47.8038586 36.5641192,47.4588401 C38.0147651,47.1285241 39.3693548,48.1351547 39.6036145,49.9523828 C40.3936284,56.0735206 40.3603028,52.8056466 40.5347724,56.1029256 C40.8160801,61.413466 40.662194,66.5015086 40.1152612,71.3895973 L37.2502355,71.6160157 L34.6625968,71.6032736 Z" id="Shape" fill="#000000" fill-rule="nonzero" mask="url(#mask-6)"></path>
                        </g>
                        <g id="Clipped">
                            <mask id="mask-8" fill="white">
                                <use xlink:href="#path-7"></use>
                            </mask>
                            <g id="SVGID_11_"></g>
                            <path d="M15.1484683,35.3655497 C13.7399695,35.1881396 13.0636548,34.1315205 13.2224418,32.7553672 C13.3459427,31.6889464 13.6497942,30.6235057 14.0075549,29.6060933 C17.3901084,19.990663 26.7712789,13.5431299 36.7532912,13.939117 C47.0695403,14.3488265 56.1341171,21.5128611 58.6570649,31.4723297 C59.4666821,34.6706119 59.8930544,37.9776926 60.327268,41.2563485 C60.7565808,44.4899167 60.9751579,47.7519097 61.3309582,51.4716404 C61.3309582,52.271456 61.3368392,53.5309695 61.329978,54.7914632 C61.3182161,56.8262882 60.9183082,58.0250315 59.33632,58.0505158 C57.7543318,58.0760001 57.3710868,56.7253311 57.3554042,54.7081491 C57.2965942,47.1275439 56.7516218,39.3067979 55.0039855,31.9320276 C53.0946218,23.8770219 44.543652,17.5951369 36.3122165,17.5735732 C27.6475474,17.5510294 20.0698827,24.3622042 17.2499446,32.3035106 C16.9392319,33.1778188 16.3834777,35.5213961 15.1484683,35.3655497 Z" id="Shape" fill="#000000" fill-rule="nonzero" opacity="0.4" mask="url(#mask-8)"></path>
                        </g>
                        <g id="Clipped">
                            <mask id="mask-10" fill="white">
                                <use xlink:href="#path-9"></use>
                            </mask>
                            <g id="SVGID_11_"></g>
                            <path d="M12.6510049,63.0228988 C12.7921488,61.2105716 12.9695589,59.2659219 13.2881129,57.0595678 C13.0244482,53.9789055 13.5409958,48.8026479 13.2547873,45.7239459 C13.105802,44.120394 13.9114986,42.8687218 15.3092156,42.6560258 C16.8725806,42.4178454 17.3744257,44.9819601 17.5596771,46.661965 C17.6175069,53.4300124 17.3430604,59.7834496 16.5726498,65.8006898" id="Shape" fill="#000000" fill-rule="nonzero" opacity="0.4" mask="url(#mask-10)"></path>
                        </g>
                        <g id="Clipped">
                            <mask id="mask-12" fill="white">
                                <use xlink:href="#path-11"></use>
                            </mask>
                            <g id="SVGID_11_"></g>
                            <circle id="Oval" fill="#000000" fill-rule="nonzero" mask="url(#mask-12)" cx="35.4486901" cy="41.8777738" r="3.00518951"></circle>
                        </g>
                        <g id="Clipped">
                            <mask id="mask-14" fill="white">
                                <use xlink:href="#path-13"></use>
                            </mask>
                            <g id="SVGID_11_"></g>
                            <path d="M26.8477318,70.4692213 L25.085393,69.9487531 L23.7082596,69.4694518 C24.784482,61.6193009 24.3238039,54.9600518 23.5994611,45.51223 C22.9525514,41.955207 22.2458516,36.6897542 23.7376645,33.225847 C26.1959213,27.5202996 31.6368238,24.1710718 37.4668522,24.8611088 C43.2018045,25.5393838 48.5299879,30.3265154 49.3523473,36.069309 C50.358978,43.0990609 51.1656548,49.9033745 51.279354,55.5079647 C51.3714897,60.0343721 51.2146631,64.256928 50.8618032,68.4245946 L47.0244526,69.9095464 C48.4819598,58.2161639 48.5427301,47.3020135 45.8129673,35.8076047 C44.4034883,30.1687086 38.2490248,27.8839413 33.7216373,28.8513653 C29.5539707,29.7423364 26.1312304,32.8651458 26.5448605,38.7186982 C27.444653,47.0501108 28.0513759,51.6960985 27.5720746,58.8395496 C27.3407554,62.2907147 27.1476627,66.5103301 26.8477318,70.4692213" id="Shape" fill="#000000" fill-rule="nonzero" opacity="0.6" mask="url(#mask-14)"></path>
                        </g>
                        <g id="Clipped">
                            <mask id="mask-16" fill="white">
                                <use xlink:href="#path-15"></use>
                            </mask>
                            <g id="SVGID_11_"></g>
                            <path d="M9.05477517,59.5325271 L5.09294347,54.2455107 C5.40953715,51.1168202 5.44678346,47.9989116 4.74792498,44.80455 C0.614564195,25.9177279 14.008535,4.70203095 33.2619393,4.10805025 C35.2732403,4.04629978 40.52105,3.58464151 41.0444588,6.16051823 C41.3385086,7.61018401 39.8310131,8.5697667 38.0510313,8.50409557 C29.1334794,7.79249492 21.2117763,9.89691171 15.3376404,17.1864076 C8.70975667,25.2463141 7.22480491,32.4250512 7.9119014,42.3041461 C8.70975667,46.6845088 9.00576686,51.1560269 9.35862669,54.1455337 C9.30765804,55.9764842 9.20670093,57.7711684 9.05477517,59.5325271" id="Shape" fill="#000000" fill-rule="nonzero" opacity="0.2" mask="url(#mask-16)"></path>
                        </g>
                    </g>
                    <g id="Group-Copy-4" stroke="none" stroke-width="1" fill-rule="evenodd" transform="translate(58.643134, 222.226613)">
                        <g id="Group" fill="#000000" fill-rule="nonzero">
                            <path d="M0.108644122,1.05602131 C0.108644122,0.576699194 0.450498471,0.289295005 0.868684682,0.289295005 C1.28687089,0.289295005 1.62872524,0.576699194 1.62872524,1.05602131 C1.62872524,1.49705438 1.28687089,1.80383944 0.868684682,1.80383944 C0.450966765,1.80383944 0.108644122,1.49705438 0.108644122,1.05602131 Z M0.431766726,4.02838568 L1.26767085,4.02838568 L1.26767085,13.2324103 L0.431766726,13.2324103 L0.431766726,4.02838568 Z" id="Shape"></path>
                            <path d="M4.68668264,4.02838568 L5.40879142,4.02838568 L5.48465498,5.44744386 L5.54131851,5.44744386 C6.47181795,4.5081805 7.42198573,3.79865141 8.67560777,3.79865141 C10.556275,3.79865141 11.4305792,4.94921357 11.4305792,7.32691598 L11.4305792,13.232883 L10.5946751,13.232883 L10.5946751,7.44131041 C10.5946751,5.4852602 9.98682993,4.56490501 8.50514889,4.56490501 C7.42245402,4.56490501 6.64321342,5.14018609 5.52258677,6.29074825 L5.52258677,13.2319376 L4.68668264,13.2319376 L4.68668264,4.02838568 Z" id="Shape"></path>
                            <path d="M15.0022547,4.75682294 L13.5772372,4.75682294 L13.5772372,4.10496377 L15.0209864,4.02838568 L15.1347818,1.36280637 L15.8568906,1.36280637 L15.8568906,4.02838568 L18.4975983,4.02838568 L18.4975983,4.75729564 L15.8568906,4.75729564 L15.8568906,10.7587489 C15.8568906,11.9282192 16.1411448,12.7143264 17.3957034,12.7143264 C17.7375578,12.7143264 18.2124075,12.5800784 18.5355301,12.4269222 L18.7635891,13.1170704 C18.2311393,13.3089884 17.6616942,13.4621445 17.2819081,13.4621445 C15.5150362,13.4621445 15.0017864,12.3309632 15.0017864,10.6816981 L15.0017864,4.75682294 L15.0022547,4.75682294 Z" id="Shape"></path>
                            <path d="M23.8361457,3.7981787 C26.0020038,3.7981787 27.3314894,5.35148489 27.3314894,8.05488054 C27.3314894,8.28508751 27.3314894,8.51482178 27.2935576,8.74550146 L20.7205882,8.74550146 C20.75852,11.065534 22.1072056,12.73418 24.1588,12.73418 C25.1464313,12.73418 25.9256719,12.408014 26.6093806,11.9097838 L26.9512349,12.5616429 C26.2291262,13.002676 25.4119538,13.4626172 24.0824682,13.4626172 C21.7461513,13.4626172 19.865484,11.6601959 19.865484,8.64954249 C19.8659523,5.63888908 21.8037514,3.7981787 23.8361457,3.7981787 Z M26.5339853,8.09364229 C26.5339853,5.73484805 25.4887539,4.52661596 23.8558141,4.52661596 C22.2982694,4.52661596 20.9111837,5.88800423 20.7210565,8.09364229 L26.5339853,8.09364229 Z" id="Shape"></path>
                            <path d="M29.8392017,4.02838568 L30.5608422,4.02838568 L30.6367058,5.73484805 L30.6933693,5.73484805 C31.3012145,4.60366676 32.1942504,3.7981787 33.2769453,3.7981787 C33.6187996,3.7981787 33.8847904,3.83646775 34.1882447,3.98962393 L33.9985858,4.75682294 C33.6951315,4.6414831 33.523736,4.60319405 33.1631499,4.60319405 C32.3464458,4.60319405 31.377078,5.23614505 30.6741693,6.9619883 L30.6741693,13.2324103 L29.8387335,13.2324103 L29.8387335,4.02838568 L29.8392017,4.02838568 Z" id="Shape"></path>
                            <path d="M39.0720789,3.7981787 C40.325701,3.7981787 41.1424051,4.35407891 41.7502502,4.92935999 L41.2562004,5.52354924 C40.6675553,4.96717633 39.9833783,4.54552414 39.0903424,4.54552414 C37.2288752,4.54552414 35.785126,6.21369746 35.785126,8.64906979 C35.785126,11.065534 37.0963481,12.7143264 39.0903424,12.7143264 C40.0592419,12.7143264 40.8956143,12.2350043 41.5217229,11.6597232 L41.9591092,12.2350043 C41.1798686,12.9445334 40.2114373,13.4621445 39.0524106,13.4621445 C36.6968937,13.4621445 34.9108218,11.6980122 34.9108218,8.64906979 C34.91129,5.56231099 36.8486208,3.7981787 39.0720789,3.7981787 Z" id="Shape"></path>
                            <path d="M47.4109836,3.7981787 C49.5768416,3.7981787 50.9067955,5.35148489 50.9067955,8.05488054 C50.9067955,8.28508751 50.9067955,8.51482178 50.8683955,8.74550146 L44.2954261,8.74550146 C44.3338262,11.065534 45.6825118,12.73418 47.7345745,12.73418 C48.7222058,12.73418 49.5005098,12.408014 50.1846868,11.9097838 L50.5265411,12.5616429 C49.8049006,13.002676 48.9877282,13.4626172 47.6582426,13.4626172 C45.3214574,13.4626172 43.4407902,11.6601959 43.4407902,8.64954249 C43.4407902,5.63888908 45.3785892,3.7981787 47.4109836,3.7981787 Z M50.1083549,8.09364229 C50.1083549,5.73484805 49.0640601,4.52661596 47.4301836,4.52661596 C45.872639,4.52661596 44.4860216,5.88800423 44.2954261,8.09364229 L50.1083549,8.09364229 Z" id="Shape"></path>
                            <path d="M54.022353,14.0378983 L54.022353,17.3936258 L53.1864489,17.3936258 L53.1864489,4.02838568 L53.9085577,4.02838568 L53.9844213,5.17894784 L54.0410848,5.17894784 C54.9336524,4.46941875 56.0163473,3.79865141 57.1374423,3.79865141 C59.5688228,3.79865141 60.7849813,5.63936179 60.7849813,8.49638632 C60.7849813,11.6219069 58.9043141,13.4626172 56.7571878,13.4626172 C55.902552,13.4626172 54.9720525,13.040965 54.0218848,12.331436 L54.0218848,14.0378983 L54.022353,14.0378983 Z M56.7197243,12.7147991 C58.5624598,12.7147991 59.8919454,10.9889559 59.8919454,8.49638632 C59.8919454,6.23355104 59.0944413,4.54646954 57.0044469,4.54646954 C56.0922109,4.54646954 55.1237797,5.08346158 54.0218848,6.06101398 L54.0218848,11.5259479 C55.0675844,12.3886332 56.0168156,12.7147991 56.7197243,12.7147991 Z" id="Shape"></path>
                            <path d="M63.73008,4.75682294 L62.3050625,4.75682294 L62.3050625,4.10496377 L63.7483434,4.02838568 L63.8626071,1.36280637 L64.5842476,1.36280637 L64.5842476,4.02838568 L67.2249553,4.02838568 L67.2249553,4.75729564 L64.5842476,4.75729564 L64.5842476,10.7587489 C64.5842476,11.9282192 64.8694384,12.7143264 66.1230604,12.7143264 C66.4649148,12.7143264 66.9397645,12.5800784 67.2628871,12.4269222 L67.4909461,13.1170704 C66.9589645,13.3089884 66.3890512,13.4621445 66.0092651,13.4621445 C64.2423932,13.4621445 63.7296117,12.3309632 63.7296117,10.6816981 L63.7296117,4.75682294 L63.73008,4.75682294 Z" id="Shape"></path>
                        </g>
                    </g>
                </g>
            </g>
            <path d="M254.074863,474 L47,474 C38.7157288,474 32,467.284271 32,459 L32,43.3775487 C32,35.0932774 38.7157288,28.3775487 47,28.3775487 L632.427139,28.3775487 C640.71141,28.3775487 647.427139,35.0932774 647.427139,43.3775487 L647.427139,459 C647.427139,467.284271 640.71141,474 632.427139,474 L501.400992,474" id="Path-102" stroke="#000000" stroke-linecap="round" stroke-linejoin="round" mask="url(#mask-2)"></path>
        </g>
    </g>
</svg>