<?xml version="1.0" encoding="UTF-8"?>
<svg width="40px" height="86px" viewBox="0 0 40 86" version="1.1" xmlns="http://www.w3.org/2000/svg" xmlns:xlink="http://www.w3.org/1999/xlink">
    <!-- Generator: Sketch 51.3 (57544) - http://www.bohemiancoding.com/sketch -->
    <title>Group 7</title>
    <desc>Created with Sketch.</desc>
    <defs></defs>
    <g id="Page-1" stroke="none" stroke-width="1" fill="none" fill-rule="evenodd">
        <g id="Desktop-HD-Copy" transform="translate(-181.000000, -207.000000)">
            <g id="Group-7" transform="translate(181.000000, 207.000000)">
                <g id="Group-4" transform="translate(0.000000, 0.567281)">
                    <circle id="Oval-18" fill="#000000" cx="20" cy="20" r="20"></circle>
                    <path d="M5.5,5 L5.5,35" id="Line-2" stroke="#FFFFFF" stroke-width="2" stroke-linecap="round"></path>
                    <path d="M20.1990741,5 L20.1990741,26" id="Path-51" stroke="#FFFFFF" stroke-width="2" stroke-linecap="round"></path>
                    <path d="M10,17.2013889 L16,17.2013889" id="Line-3" stroke="#FFFFFF" stroke-width="2" stroke-linecap="round"></path>
                    <circle id="Oval-19" stroke="#FFFFFF" stroke-width="2" stroke-linecap="round" cx="28" cy="17" r="3"></circle>
                    <polyline id="Path-52" stroke="#FFFFFF" stroke-width="2" stroke-linecap="round" points="35.7984656 5 35.7984656 34.9717948 22 34.9717948"></polyline>
                </g>
                <path d="M-7.82646901,58.39375 L-5.77744812,58.39375 L-5.77744812,64.5207242 L-3.24630467,64.5207242 L-3.24630467,58.39375 L-1.19728377,58.39375 L-1.19728377,72.6967194 L-3.24630467,72.6967194 L-3.24630467,66.3286838 L-5.77744812,66.3286838 L-5.77744812,72.6967194 L-7.82646901,72.6967194 L-7.82646901,58.39375 Z M3.86500313,62.5118802 L3.82482625,62.5118802 L2.82040425,67.6946978 L4.86942514,67.6946978 L3.86500313,62.5118802 Z M3.00120021,58.39375 L4.70871762,58.39375 L7.9027796,72.6967194 L5.8537587,72.6967194 L5.2511055,69.623188 L2.45881233,69.623188 L1.85615912,72.6967194 L-0.192861769,72.6967194 L3.00120021,58.39375 Z M8.82684784,58.39375 L10.795515,58.39375 L13.8891347,67.0116908 L13.9293116,67.0116908 L13.9293116,58.39375 L15.9783325,58.39375 L15.9783325,72.6967194 L14.0498423,72.6967194 L10.9160456,64.098867 L10.8758687,64.098867 L10.8758687,72.6967194 L8.82684784,72.6967194 L8.82684784,58.39375 Z M19.7348708,66.6500989 L16.9224892,58.39375 L19.0920407,58.39375 L20.7392928,64.0787786 L20.7794697,64.0787786 L22.4267218,58.39375 L24.5962733,58.39375 L21.7838917,66.6500989 L21.7838917,72.6967194 L19.7348708,72.6967194 L19.7348708,66.6500989 Z M32.249969,69.4825689 C32.249969,69.9513016 32.16292,70.3865467 31.9888193,70.7883175 C31.8147186,71.1900884 31.5770078,71.5416325 31.2756797,71.8429607 C30.9743516,72.1442888 30.6228074,72.3819996 30.2210366,72.5561003 C29.8192657,72.730201 29.3907166,72.81725 28.9353764,72.81725 C28.4800361,72.81725 28.051487,72.730201 27.6497162,72.5561003 C27.2479454,72.3819996 26.8964012,72.1442888 26.5950731,71.8429607 C26.293745,71.5416325 26.0560342,71.1900884 25.8819335,70.7883175 C25.7078328,70.3865467 25.6207838,69.9513016 25.6207838,69.4825689 L25.6207838,58.39375 L27.6698047,58.39375 L27.6698047,69.2816845 C27.6698047,69.7905942 27.7903341,70.1655747 28.0313966,70.4066372 C28.2724591,70.6476997 28.5737827,70.7682291 28.9353764,70.7682291 C29.2969701,70.7682291 29.5982937,70.6476997 29.8393562,70.4066372 C30.0804187,70.1655747 30.2009481,69.7905942 30.2009481,69.2816845 L30.2009481,58.39375 L32.249969,58.39375 L32.249969,69.4825689 Z" id="HANYU-Copy" fill="#000000" transform="translate(12.211750, 65.605500) rotate(-90.000000) translate(-12.211750, -65.605500) "></path>
                <path d="M12.6723122,58.8791488 C12.6723122,58.2940393 12.7743647,57.7769735 12.9784726,57.3279359 C13.1825806,56.8788984 13.4513188,56.5081078 13.7846951,56.215553 C14.1180715,55.9229983 14.4922638,55.7018846 14.9072834,55.5522054 C15.3223029,55.4025263 15.740718,55.3276878 16.1625411,55.3276878 C16.5843643,55.3276878 17.0027793,55.4025263 17.4177989,55.5522054 C17.8328184,55.7018846 18.2070108,55.9229983 18.5403871,56.215553 C18.8737635,56.5081078 19.1425016,56.8788984 19.3466096,57.3279359 C19.5507176,57.7769735 19.65277,58.2940393 19.65277,58.8791488 L19.65277,59.6139338 L17.5708791,59.6139338 L17.5708791,58.8791488 C17.5708791,58.3756824 17.4314074,58.0048918 17.1524599,57.7667659 C16.8735123,57.5286399 16.5435427,57.4095787 16.1625411,57.4095787 C15.7815396,57.4095787 15.45157,57.5286399 15.1726224,57.7667659 C14.8936748,58.0048918 14.7542031,58.3756824 14.7542031,58.8791488 L14.7542031,66.5535702 C14.7542031,67.0570366 14.8936748,67.4278272 15.1726224,67.6659531 C15.45157,67.9040791 15.7815396,68.0231403 16.1625411,68.0231403 C16.5435427,68.0231403 16.8735123,67.9040791 17.1524599,67.6659531 C17.4314074,67.4278272 17.5708791,67.0570366 17.5708791,66.5535702 L17.5708791,63.8185371 L15.9176128,63.8185371 L15.9176128,61.9815745 L19.65277,61.9815745 L19.65277,66.5535702 C19.65277,67.152287 19.5507176,67.6727545 19.3466096,68.1149884 C19.1425016,68.5572224 18.8737635,68.9246112 18.5403871,69.217166 C18.2070108,69.5097207 17.8328184,69.7308344 17.4177989,69.8805136 C17.0027793,70.0301928 16.5843643,70.1050312 16.1625411,70.1050312 C15.740718,70.1050312 15.3223029,70.0301928 14.9072834,69.8805136 C14.4922638,69.7308344 14.1180715,69.5097207 13.7846951,69.217166 C13.4513188,68.9246112 13.1825806,68.5572224 12.9784726,68.1149884 C12.7743647,67.6727545 12.6723122,67.152287 12.6723122,66.5535702 L12.6723122,58.8791488 Z M21.3672684,58.8791488 C21.3672684,58.2940393 21.4693209,57.7769735 21.6734289,57.3279359 C21.8775368,56.8788984 22.146275,56.5081078 22.4796513,56.215553 C22.8130277,55.9229983 23.18722,55.7018846 23.6022396,55.5522054 C24.0172591,55.4025263 24.4356742,55.3276878 24.8574974,55.3276878 C25.2793205,55.3276878 25.6977356,55.4025263 26.1127551,55.5522054 C26.5277747,55.7018846 26.901967,55.9229983 27.2353434,56.215553 C27.5687197,56.5081078 27.8374579,56.8788984 28.0415658,57.3279359 C28.2456738,57.7769735 28.3477263,58.2940393 28.3477263,58.8791488 L28.3477263,66.5535702 C28.3477263,67.152287 28.2456738,67.6727545 28.0415658,68.1149884 C27.8374579,68.5572224 27.5687197,68.9246112 27.2353434,69.217166 C26.901967,69.5097207 26.5277747,69.7308344 26.1127551,69.8805136 C25.6977356,70.0301928 25.2793205,70.1050312 24.8574974,70.1050312 C24.4356742,70.1050312 24.0172591,70.0301928 23.6022396,69.8805136 C23.18722,69.7308344 22.8130277,69.5097207 22.4796513,69.217166 C22.146275,68.9246112 21.8775368,68.5572224 21.6734289,68.1149884 C21.4693209,67.6727545 21.3672684,67.152287 21.3672684,66.5535702 L21.3672684,58.8791488 Z M23.4491594,66.5535702 C23.4491594,67.0570366 23.5886311,67.4278272 23.8675786,67.6659531 C24.1465262,67.9040791 24.4764958,68.0231403 24.8574974,68.0231403 C25.2384989,68.0231403 25.5684685,67.9040791 25.8474161,67.6659531 C26.1263636,67.4278272 26.2658353,67.0570366 26.2658353,66.5535702 L26.2658353,58.8791488 C26.2658353,58.3756824 26.1263636,58.0048918 25.8474161,57.7667659 C25.5684685,57.5286399 25.2384989,57.4095787 24.8574974,57.4095787 C24.4764958,57.4095787 24.1465262,57.5286399 23.8675786,57.7667659 C23.5886311,58.0048918 23.4491594,58.3756824 23.4491594,58.8791488 L23.4491594,66.5535702 Z M30.1030461,55.450152 L32.1032942,55.450152 L35.2465413,64.2063403 L35.2873627,64.2063403 L35.2873627,55.450152 L37.3692536,55.450152 L37.3692536,69.9825671 L35.4098269,69.9825671 L32.2257584,61.2467894 L32.184937,61.2467894 L32.184937,69.9825671 L30.1030461,69.9825671 L30.1030461,55.450152 Z M39.1245734,58.8791488 C39.1245734,58.2940393 39.2266259,57.7769735 39.4307338,57.3279359 C39.6348418,56.8788984 39.90358,56.5081078 40.2369563,56.215553 C40.5703327,55.9229983 40.944525,55.7018846 41.3595446,55.5522054 C41.7745641,55.4025263 42.1929792,55.3276878 42.6148023,55.3276878 C43.0366255,55.3276878 43.4550405,55.4025263 43.8700601,55.5522054 C44.2850796,55.7018846 44.659272,55.9229983 44.9926483,56.215553 C45.3260247,56.5081078 45.5947628,56.8788984 45.7988708,57.3279359 C46.0029788,57.7769735 46.1050312,58.2940393 46.1050312,58.8791488 L46.1050312,59.6139338 L44.0231403,59.6139338 L44.0231403,58.8791488 C44.0231403,58.3756824 43.8836686,58.0048918 43.604721,57.7667659 C43.3257735,57.5286399 42.9958039,57.4095787 42.6148023,57.4095787 C42.2338008,57.4095787 41.9038312,57.5286399 41.6248836,57.7667659 C41.345936,58.0048918 41.2064643,58.3756824 41.2064643,58.8791488 L41.2064643,66.5535702 C41.2064643,67.0570366 41.345936,67.4278272 41.6248836,67.6659531 C41.9038312,67.9040791 42.2338008,68.0231403 42.6148023,68.0231403 C42.9958039,68.0231403 43.3257735,67.9040791 43.604721,67.6659531 C43.8836686,67.4278272 44.0231403,67.0570366 44.0231403,66.5535702 L44.0231403,63.8185371 L42.369874,63.8185371 L42.369874,61.9815745 L46.1050312,61.9815745 L46.1050312,66.5535702 C46.1050312,67.152287 46.0029788,67.6727545 45.7988708,68.1149884 C45.5947628,68.5572224 45.3260247,68.9246112 44.9926483,69.217166 C44.659272,69.5097207 44.2850796,69.7308344 43.8700601,69.8805136 C43.4550405,70.0301928 43.0366255,70.1050312 42.6148023,70.1050312 C42.1929792,70.1050312 41.7745641,70.0301928 41.3595446,69.8805136 C40.944525,69.7308344 40.5703327,69.5097207 40.2369563,69.217166 C39.90358,68.9246112 39.6348418,68.5572224 39.4307338,68.1149884 C39.2266259,67.6727545 39.1245734,67.152287 39.1245734,66.5535702 L39.1245734,58.8791488 Z" id="GONG-Copy" fill="#D2D2D2" transform="translate(29.388672, 62.716360) rotate(-90.000000) translate(-29.388672, -62.716360) "></path>
            </g>
        </g>
    </g>
</svg>