<svg id="Layer_3" data-name="Layer 3" xmlns="http://www.w3.org/2000/svg" viewBox="0 0 304.34 351.49"><defs><style>.cls-1{fill:#3954fa;}.cls-2{fill:#ff4470;}</style></defs><title>me</title><path d="M425.66,488c17.41-24.44,44-40.06,72.31-48.78a219,219,0,0,1,44-8.57c15.3-1.42,31-2.07,46.29.16,17.35,2.54,33.31,9.36,46.15,21.44,2.79,2.63,7-1.58,4.21-4.21C614.09,425,581.09,422,548.94,424.15c-31.41,2.13-63.23,9.57-90.4,26a126.75,126.75,0,0,0-38,34.89c-2.23,3.12,2.93,6.1,5.14,3Z" transform="translate(-374.05 -357.74)"/><path d="M424.13,487.57c.07-27.16.77-56.38,17.54-79.17,7.63-10.37,17.41-21.36,28-28.81,8.88-6.24,18.89-8.28,29.58-8.52,3.76-.08,7.59.55,11.31.06a80.85,80.85,0,0,0,11.86-2.83c8.44-2.43,15.86-4.93,24.72-4.62a88.68,88.68,0,0,1,55.53,22.58c19.05,17,30.15,41,32.88,66.17.41,3.77,6.37,3.81,6,0-4.94-45.61-37-86.89-84-93.74-9.31-1.36-18.16-1.47-27.21,1.1-8.63,2.46-16.9,5.67-25.92,5.33-11-.41-22.33.8-32.18,5.94-11.18,5.84-20,16-28.28,25.25a92.74,92.74,0,0,0-21.78,41.84c-3.64,16.19-3.92,32.91-4,49.42,0,3.83,5.94,3.84,5.95,0Z" transform="translate(-374.05 -357.74)"/><path d="M419.05,483.21c-19.95,21.14-38.92,45.44-43.77,75-1.88,11.47-3.13,28.68,8.13,36.27s23.27,4.58,34.11-2.09c3.25-2,.27-7.16-3-5.14a40.57,40.57,0,0,1-14,5.88c-5.81,1.09-13.42-1.76-16.66-6.8-6.76-10.51-3.78-25.26-.59-36.45,7-24.46,22.93-44.3,40-62.44,2.63-2.79-1.57-7-4.21-4.21Z" transform="translate(-374.05 -357.74)"/><path d="M421.38,482.44a93.2,93.2,0,0,0-5.72,45.35c1.34,11.55,4.88,23.62,2.85,35.28-1.16,6.67-4.53,12.44-5,19.31-.53,8,1.51,15.74,1.85,23.66.37,8.72-4.46,16.12-7.42,24.06-2.7,7.24-4.16,15.15-3,22.86,1.2,8.07,5.62,14.49,9,21.73,3.64,7.85,0,14.47-4.2,21.36-2,3.28,3.14,6.27,5.14,3,3.35-5.49,7-11.74,6.75-18.42-.25-5.93-3.71-11-6.35-16.07-4.1-7.91-5.72-15.82-4-24.64s6.67-16.31,9.15-24.79c2.06-7.06.32-14.58-.49-21.7a57.92,57.92,0,0,1-.4-11.84c.39-4.22,2.08-7.77,3.39-11.71,3.69-11.06,1.57-22.71-.16-33.91-2.78-18-2.34-34.8,4.36-51.94,1.39-3.57-4.36-5.12-5.74-1.59Z" transform="translate(-374.05 -357.74)"/><path d="M430.49,590.39c.05,10.83,2.67,21.3,3,32.09.29,9.53-4.35,18.11-2.69,27.71,1.39,8.06,4.9,16,11.46,21a28,28,0,0,1,8.38,9.94c1.31,2.73,3.27,8.59,2.34,11.58-1.14,3.67,4.6,5.24,5.74,1.58,1-3.16-.28-7.61-1-10.69a30.44,30.44,0,0,0-6.57-12.34c-2-2.43-4.61-4-6.92-6.09-3.39-3.1-5.43-7.8-6.66-12.14a28.6,28.6,0,0,1-.26-15.38c1-4.47,2.24-8.82,2.19-13.43-.11-11.39-3-22.46-3-33.87,0-3.83-6-3.83-5.95,0Z" transform="translate(-374.05 -357.74)"/><path d="M449.11,575.28c3.27,12.14,3.21,24.33,2.6,36.79-.45,9.21-1,18.61,2.35,27.38,2.79,7.25,7.57,12.84,12,19.09,5.49,7.76,5.16,15.14,2.13,24-1.25,3.63,4.5,5.19,5.74,1.58,2.75-8,3.94-16.34,0-24.14-3.48-6.89-9.38-12.2-12.82-19.16-4.72-9.57-3.85-19.89-3.35-30.23.6-12.46.37-24.72-2.89-36.84-1-3.7-6.74-2.13-5.74,1.58Z" transform="translate(-374.05 -357.74)"/><path d="M425.16,546.76c-1.18,8.86,4.93,17.24,11.68,22.32a22.76,22.76,0,0,0,12.29,4.86c5.23.3,10.31-1.81,15.31-3a3,3,0,0,0,2.18-2.87l.12-1.83c.25-3.83-5.7-3.81-5.95,0l-.12,1.83,2.19-2.87c-7.89,1.93-14.48,4.75-21.87-.39-5.72-4-10.85-10.74-9.88-18,.5-3.79-5.45-3.75-5.95,0Z" transform="translate(-374.05 -357.74)"/><path d="M450.33,529.17A203.7,203.7,0,0,0,469,580.88c8.56,16.74,19.33,33,33.32,45.74s33.38,23,52.67,19.66c22-3.75,37.34-21.83,49.22-39.3s22-38.59,24.58-59.62c.47-3.79-5.49-3.76-6,0-2.2,18-10.86,35.79-20.2,51.07-10.24,16.75-24.06,34.9-43.67,40.8C540,644.92,520.3,635,506.47,622.41c-12.73-11.58-22.59-26.12-30.65-41.24a198.37,198.37,0,0,1-19.75-53.58c-.76-3.75-6.5-2.16-5.74,1.58Z" transform="translate(-374.05 -357.74)"/><path d="M450.3,516.11c16.13-6.54,31.48-14.86,47.27-22.19,3.47-1.61.45-6.74-3-5.14-15.32,7.11-30.21,15.24-45.85,21.59-3.5,1.42-2,7.19,1.58,5.74Z" transform="translate(-374.05 -357.74)"/><path d="M564,497.6h26.33c3.83,0,3.84-6,0-6H564c-3.83,0-3.84,6,0,6Z" transform="translate(-374.05 -357.74)"/><path d="M600.81,434.1c7.29,5.18,14.37,11.9,19,19.61,5.12,8.54,8,18.38,12.35,27.34,1.66,3.45,6.8.43,5.14-3-4.7-9.74-7.72-20.83-13.93-29.75A80.48,80.48,0,0,0,603.82,429c-3.13-2.22-6.11,2.94-3,5.14Z" transform="translate(-374.05 -357.74)"/><path d="M634.42,452.25c6.06,6.52,11.07,15.32,12.7,24.15,1.71,9.21-.51,18.51-.73,27.76-.09,3.83,5.87,3.83,6,0,.23-10.16,2.51-20.14.34-30.25-2-9.49-7.51-18.82-14.06-25.87-2.61-2.81-6.82,1.41-4.21,4.21Z" transform="translate(-374.05 -357.74)"/><path d="M520.72,441c-7,12-20.59,18.37-30.37,27.7-4.38,4.17-7.5,9.36-11.64,13.72-5.51,5.82-12.89,7.87-19.16,12.49-8.27,6.08-12.19,16.65-18.34,24.69a147,147,0,0,0-21,37.44c-1.36,3.58,4.39,5.13,5.74,1.58,5.12-13.55,12.45-25.64,21.22-37.1a85.38,85.38,0,0,0,6.91-10.34c3.89-6.93,7.94-11.43,15.17-15a46.43,46.43,0,0,0,15.82-12.05c3.74-4.51,7-9.27,11.52-13.09,10-8.47,22.47-15.44,29.26-27.07,1.93-3.32-3.21-6.32-5.14-3Z" transform="translate(-374.05 -357.74)"/><path d="M474.94,454a135.42,135.42,0,0,0-23,18.05c-6.21,6.19-12.23,13.57-13.26,22.55-.44,3.8,5.52,3.77,6,0,.93-8.07,7.93-15,13.54-20.3A132.73,132.73,0,0,1,478,459.16c3.22-2.05.24-7.21-3-5.14Z" transform="translate(-374.05 -357.74)"/><path d="M558.06,549.46c.72,3.42,3.29,4.52,6.18,5.92,3.42,1.67,6,4.56,9.45,6.23,7.31,3.55,12.13-.73,18.09-4.18,3.32-1.91.33-7.06-3-5.14-4.47,2.59-7.49,6.44-13.08,3.63-2-1-3.73-2.74-5.6-4-1.33-.92-5.94-2.27-6.3-4-.78-3.75-6.52-2.16-5.74,1.58Z" transform="translate(-374.05 -357.74)"/><path d="M575,517.83l2.59,21.11c.24,1.87,3.22,1.9,3,0L578,517.83c-.23-1.88-3.21-1.9-3,0Z" transform="translate(-374.05 -357.74)"/><path d="M523.43,583.6l19.41-1.44,9.7-.72c3.13-.23,6.86-1.07,10-.41,2.61.56,4.42,2.63,6.8,3.75a17.11,17.11,0,0,0,5.44,1.39c4.53.54,10.52-.81,13.95,2.88,2.61,2.81,6.82-1.41,4.21-4.21-3.28-3.52-7.59-4.13-12.2-4.31-2.54-.1-5.23.07-7.69-.7-2.7-.85-4.5-3.13-7.15-4.11-5.69-2.11-13.25-.24-19.13.2l-23.29,1.73c-3.8.28-3.83,6.24,0,6Z" transform="translate(-374.05 -357.74)"/><path d="M619.6,568.3c4.57,8.74,8.94,18,8,28.07-.67,7.2-1.43,13.67.19,20.87,2.3,10.25,10.77,17.18,15.25,26.38,4.15,8.52,2.38,21.77-.9,30.44-2.24,5.93-5.75,10.89-4.85,17.5.51,3.78,6.25,2.17,5.74-1.59-.69-5.1,3.5-10.51,5.14-15.11,3.18-9,4.3-20.92,1.72-30.11-2.8-10-12.31-16.54-15.61-26.2-2.56-7.44-1.43-14.61-.73-22.18,1-11.1-3.8-21.48-8.82-31.08-1.77-3.39-6.91-.39-5.14,3Z" transform="translate(-374.05 -357.74)"/><path d="M606.09,595.19c-1.47,12.22-3.34,27.7,3.82,38.66,4,6.06,8.23,12.12,8.34,19.61.11,7.88-1.13,16.48-4.47,23.67-1.6,3.45,3.53,6.48,5.14,3,6.18-13.29,7.79-29.9.28-42.85-1.65-2.85-3.93-5.44-5.39-8.39a34.4,34.4,0,0,1-2.41-9c-1.43-8.14-.33-16.54.64-24.66.45-3.8-5.5-3.77-5.95,0Z" transform="translate(-374.05 -357.74)"/><path d="M588.68,617.79a42.54,42.54,0,0,0-8.21,16.53c-1.6,6.25,0,12.16,2.47,18a51.83,51.83,0,0,0,9.58,14.8c5.19,5.62,6.21,15.7,4.48,22.87-.9,3.73,4.84,5.32,5.74,1.59a40.56,40.56,0,0,0-.91-20.13c-1.6-5.37-5.75-8.5-8.73-13-3.6-5.43-7.79-12.58-7.45-19.31.28-5.8,3.58-12.73,7.24-17.12,2.43-2.92-1.76-7.16-4.21-4.21Z" transform="translate(-374.05 -357.74)"/><path d="M559.22,642.45c-.41,13.63-.17,27.22-1.27,40.83-.3,3.82,5.65,3.8,6,0,1.1-13.61.86-27.2,1.27-40.83.11-3.83-5.84-3.83-6,0Z" transform="translate(-374.05 -357.74)"/><path d="M468,605.49A85.25,85.25,0,0,0,473.61,629c2.84,7.32,7.06,13.14,11.58,19.48,9.14,12.79,10.18,32.93-.07,45.44-2.41,3,1.78,7.18,4.21,4.21,9.86-12,11.45-29.64,5.85-44-3.1-7.94-9.66-13.76-13.46-21.3a76.33,76.33,0,0,1-7.81-27.3c-.31-3.79-6.27-3.83-6,0Z" transform="translate(-374.05 -357.74)"/><circle class="cls-1" cx="154.46" cy="147.89" r="35.44"/><path d="M561,505.63a32.44,32.44,0,1,1-26.42-31.89c15.37,2.88,26.12,16.47,26.42,31.89.07,3.86,6.07,3.87,6,0a38.44,38.44,0,1,0-30.83,37.68c18-3.5,30.48-19.68,30.83-37.68C567,501.77,561,501.77,561,505.63Z" transform="translate(-374.05 -357.74)"/><ellipse class="cls-2" cx="246.76" cy="153.46" rx="29.18" ry="34.14"/><path d="M647,511.2c-.27,14.72-9.78,31.14-26.18,31.14-16.19,0-26.17-16.42-26.17-31.14s10-31.13,26.17-31.13c16.4,0,25.91,16.42,26.18,31.13.07,3.86,6.07,3.87,6,0-.26-14.43-7.44-29.21-21.34-34.95-13.18-5.44-27.55.08-35.66,11.33-8.83,12.25-9.62,29.44-2.76,42.76,6.29,12.23,19.52,20.18,33.36,17.4,16.81-3.39,26.11-20.53,26.4-36.54C653.06,507.34,647.06,507.34,647,511.2Z" transform="translate(-374.05 -357.74)"/><path d="M496.07,472.57a154.71,154.71,0,0,1,57.68,5c3.69,1,5.27-4.71,1.58-5.74a159.35,159.35,0,0,0-59.26-5.2c-3.78.38-3.82,6.34,0,5.95Z" transform="translate(-374.05 -357.74)"/><path d="M596.6,483c5.89-2.57,13.09-3.28,19.34-4.57,3-.62,12.44-.9,12.62-5.34a2.93,2.93,0,0,0-1.48-2.57,6.61,6.61,0,0,0-3.27-.42c-3.8.21-3.83,6.17,0,5.95,1-.05,1.94.35.27-.39l-1.48-2.57v.05l1.47-2.57s-3.15.74-4.33,1c-3.19.69-6.39,1.33-9.59,2-5.5,1.16-11.36,2-16.55,4.3-3.51,1.52-.48,6.66,3,5.14Z" transform="translate(-374.05 -357.74)"/><path d="M546.55,593.84c8.89,2.45,18,5.79,27.29,5.57,1.91,0,1.92-3,0-3-9,.22-17.9-3.09-26.5-5.46a1.49,1.49,0,0,0-.79,2.87Z" transform="translate(-374.05 -357.74)"/><path d="M548.61,428.46c-4.58,13.53-14.15,22-26.82,28.15-3.45,1.68-.43,6.81,3,5.14,14.1-6.88,24.49-16.72,29.56-31.7,1.23-3.64-4.52-5.2-5.74-1.59Z" transform="translate(-374.05 -357.74)"/><path d="M561.66,428.46a29.51,29.51,0,0,0,2.45,15c2.35,5.35,7,7.93,11.5,11.23,3.09,2.27,6.07-2.89,3-5.14-3.39-2.5-7.3-4.42-9.11-8.48-1.36-3.07-2.57-7.71-2.11-11.06.51-3.75-5.23-5.37-5.74-1.59Z" transform="translate(-374.05 -357.74)"/><path d="M577.12,429.72c4.06.54,5.71,4.59,7.31,7.67a39.23,39.23,0,0,0,6.19,9.19,46.89,46.89,0,0,0,16.37,11c3.54,1.47,5.08-4.29,1.58-5.74a36.34,36.34,0,0,1-18.63-16.69c-2.94-5.61-6-10.43-12.82-11.35-3.79-.5-3.75,5.45,0,6Z" transform="translate(-374.05 -357.74)"/><path d="M637.19,536.74c.58,11.76,1.24,23.78,4.31,35.2,2.36,8.8,6.43,17,10.57,25,6.22,12.08,12.92,23.86,16.41,37.08,2.59,9.78,5.93,22.68,3.44,32.83-1.44,5.85-5.44,11.86-8.77,16.8a34.16,34.16,0,0,1-20.29,14.54c-3.69,1-2.13,6.76,1.58,5.74,6.08-1.67,12.49-4.53,17.13-8.91,5.12-4.83,8.94-11.4,12.14-17.6,2.17-4.2,4.09-8.14,4.51-12.88a74.11,74.11,0,0,0-.86-16.36A122.9,122.9,0,0,0,665,609.15c-5.31-10.53-11.5-20.86-15.6-31.95-4.77-12.93-5.6-26.82-6.26-40.46-.19-3.81-6.14-3.84-6,0Z" transform="translate(-374.05 -357.74)"/><path d="M552.81,411.54c1-6.39,7.42-9.57,12.92-11.7a28.11,28.11,0,0,1,16.21-1.18c9.34,1.86,15.4,6.32,18.35,15.7,1.14,3.65,6.89,2.09,5.74-1.58-3.83-12.17-12.15-18.11-24.39-20.21-11.81-2-32.47,3.21-34.57,17.39-.56,3.75,5.18,5.36,5.74,1.58Z" transform="translate(-374.05 -357.74)"/><path d="M549.94,413.73a173.17,173.17,0,0,1,52.43,2.71c3.74.77,5.34-5,1.58-5.74a178.42,178.42,0,0,0-54-2.93c-3.78.39-3.82,6.34,0,6Z" transform="translate(-374.05 -357.74)"/><path d="M436.22,535.73c4.2-.35,8.77-.82,12.54,1.45a1.49,1.49,0,0,0,1.5-2.57c-4.25-2.55-9.28-2.25-14-1.86-1.89.16-1.91,3.14,0,3Z" transform="translate(-374.05 -357.74)"/><path d="M441.24,534.93a73.53,73.53,0,0,0,.9,15.47c.3,1.88,3.17,1.08,2.87-.8a70,70,0,0,1-.79-14.67c.09-1.92-2.88-1.91-3,0Z" transform="translate(-374.05 -357.74)"/><path d="M498.93,666.53c5.13-13.36,6-28.58,7-42.71.29-3.83-5.67-3.81-5.95,0-1,13.66-1.86,28.22-6.81,41.12-1.38,3.58,4.37,5.13,5.74,1.59Z" transform="translate(-374.05 -357.74)"/><path d="M564,667.84c6.75,5.43,12.91,12.26,16.49,20.24,5.77,12.84-13.62,15.57-22.15,15.12-20-1-38.26-14.1-55.24-23.45-3.36-1.85-6.37,3.29-3,5.14,20.84,11.47,44.47,28.36,69.59,23.48,8.81-1.71,19.81-7.51,17.75-18.2-2-10.32-11.33-20.2-19.22-26.54-3-2.38-7.2,1.81-4.21,4.21Z" transform="translate(-374.05 -357.74)"/><path d="M514.29,505.21q15-13.62,30.71-26.41c1.48-1.21-.64-3.31-2.11-2.11q-15.72,12.81-30.71,26.41c-1.42,1.3.69,3.4,2.11,2.11Z" transform="translate(-374.05 -357.74)"/><path d="M518.1,519.75a177.93,177.93,0,0,1,12.77-12.55c1.43-1.27-.68-3.37-2.11-2.1A177.89,177.89,0,0,0,516,517.65c-1.29,1.41.81,3.52,2.11,2.1Z" transform="translate(-374.05 -357.74)"/><path d="M610.74,513.48a323.06,323.06,0,0,1,29.16-23.39c1.53-1.11.05-3.7-1.51-2.57a332.65,332.65,0,0,0-29.76,23.85c-1.41,1.3.7,3.4,2.11,2.11Z" transform="translate(-374.05 -357.74)"/><path d="M612,526.62l13.4-13.14c1.37-1.34-.73-3.45-2.1-2.11l-13.4,13.14c-1.37,1.35.73,3.45,2.1,2.11Z" transform="translate(-374.05 -357.74)"/></svg>