<?xml version="1.0" encoding="UTF-8"?>
<svg width="630px" height="843px" viewBox="0 0 630 843" version="1.1" xmlns="http://www.w3.org/2000/svg" xmlns:xlink="http://www.w3.org/1999/xlink">
    <!-- Generator: Sketch 51.3 (57544) - http://www.bohemiancoding.com/sketch -->
    <title>Group 8 Copy 2</title>
    <desc>Created with Sketch.</desc>
    <defs>
        <rect id="path-1" x="0" y="0" width="630" height="843"></rect>
    </defs>
    <g id="Page-1" stroke="none" stroke-width="1" fill="none" fill-rule="evenodd">
        <g id="Group-8-Copy-2">
            <g id="Group-7-Copy">
                <mask id="mask-2" fill="white">
                    <use xlink:href="#path-1"></use>
                </mask>
                <use id="Mask" fill="#FFFFFF" xlink:href="#path-1"></use>
                <g id="Group-17" mask="url(#mask-2)" stroke="#000000">
                    <g transform="translate(314.708514, 630.230393) rotate(-36.000000) translate(-314.708514, -630.230393) translate(40.708514, 322.230393)">
                        <rect id="Rectangle-38" stroke-width="3" transform="translate(251.500000, 112.500000) rotate(36.000000) translate(-251.500000, -112.500000) " x="251.5" y="70.5" width="1" height="84" rx="0.5"></rect>
                        <rect id="Rectangle-38-Copy" stroke-width="3" transform="translate(197.000000, 187.000000) rotate(36.000000) translate(-197.000000, -187.000000) " x="197.5" y="165.5" width="1" height="43" rx="0.5"></rect>
                        <rect id="Rectangle-38-Copy-2" stroke-width="3" transform="translate(438.809017, 306.587785) rotate(36.000000) translate(-438.809017, -306.587785) " x="439.309017" y="285.087785" width="1" height="43" rx="0.5"></rect>
                        <rect id="Rectangle-10" stroke-width="2" transform="translate(274.000000, 308.000000) rotate(36.000000) translate(-274.000000, -308.000000) " x="143" y="25" width="262" height="566" rx="32"></rect>
                        <rect id="Rectangle-10" stroke-width="2" transform="translate(273.000000, 308.500000) rotate(36.000000) translate(-273.000000, -308.500000) " x="142" y="31" width="262" height="555" rx="31"></rect>
                        <rect id="Rectangle-10-Copy" stroke-width="2" transform="translate(273.500000, 308.500000) rotate(36.000000) translate(-273.500000, -308.500000) " x="150" y="53" width="247" height="511" rx="18"></rect>
                    </g>
                </g>
            </g>
            <circle id="Oval-29" stroke="#000000" stroke-width="2" cx="295.5" cy="630.5" r="8.5"></circle>
            <circle id="Oval-29-Copy-2" fill="#000000" cx="297" cy="629" r="3"></circle>
            <circle id="Oval-29-Copy-3" fill="#000000" cx="330" cy="629" r="3"></circle>
            <circle id="Oval-29-Copy" stroke="#000000" stroke-width="2" cx="328.5" cy="630.5" r="8.5"></circle>
            <path d="M266.392558,602.93804 L267.697724,614.239172 C267.872533,615.752806 269.15422,616.894991 270.677915,616.894991 L275.253617,616.894991 L278.841387,674.953862 C278.939147,676.535846 280.250674,677.768828 281.835676,677.768828 L339.446217,677.768828 C340.98685,677.768828 342.277038,676.601858 342.431166,675.068955 L348.280354,616.894991 L353.886024,616.894991 C355.396959,616.894991 356.672113,615.771325 356.86219,614.272393 L358.295266,602.97126 C358.5037,601.327569 357.340193,599.826125 355.696502,599.617692 C355.571328,599.601818 355.445276,599.593858 355.3191,599.593858 L269.372749,599.593858 C267.715895,599.593858 266.372749,600.937004 266.372749,602.593858 C266.372749,602.70887 266.379363,602.823787 266.392558,602.93804 Z" id="Path-96" stroke="#000000" stroke-width="2" stroke-linecap="round" stroke-linejoin="round"></path>
            <path d="M278.235256,570.455017 L289.327715,593.588008" id="Path-100" stroke="#000000" stroke-width="2"></path>
            <path d="M295,550 L301,591" id="Path-100" stroke="#000000" stroke-width="2"></path>
            <path d="M313.764744,579.544983 L307.764744,599.544983" id="Path-100" stroke="#000000" stroke-width="2"></path>
            <path d="M275,591 L282,600" id="Path-100" stroke="#000000" stroke-width="2"></path>
            <path d="M336,562 L325,599" id="Path-100" stroke="#000000" stroke-width="2"></path>
            <path d="M348,564 L328,600" id="Path-100" stroke="#000000" stroke-width="2"></path>
            <path d="M352,593 L346,600" id="Path-100" stroke="#000000" stroke-width="2"></path>
            <path d="M321.022997,581.631545 C317.151722,583.130929 310.842029,587.216281 312.18399,596.663763 C313.525951,606.111245 336.608741,610.032306 341.564043,601.484307 C346.519344,592.936307 344.124424,584.393209 336.690619,581.631545 C329.256814,578.869882 324.894273,580.132162 321.022997,581.631545 Z" id="Path-98" stroke="#000000" stroke-width="2" fill="#FFFFFF"></path>
            <path d="M286.786345,572.285581 C282.915069,573.784964 276.02805,579.545858 280.408185,588.942667 C282.423063,593.265234 285.363591,599.264991 290.511629,598.069938 C293.274305,597.428617 300.832312,595.199176 306.03269,593.571343 C307.838225,593.006171 308.424337,592.44166 308.664325,591.697434 C311.631333,582.496433 311.560777,576.743663 304.599123,573.371528 C297.637468,569.999393 290.65762,570.786197 286.786345,572.285581 Z" id="Path-98-Copy" stroke="#000000" stroke-width="2" fill="#FFFFFF"></path>
            <circle id="Oval-30" stroke="#000000" stroke-width="2" fill="#FFFFFF" cx="265" cy="585" r="11"></circle>
            <circle id="Oval-30-Copy" stroke="#000000" stroke-width="2" fill="#FFFFFF" cx="357.963393" cy="587.5" r="8.5"></circle>
            <path d="M307.022118,553.64146 C303.078384,556.15799 297.166829,561.826805 301.546964,571.223614 C305.927099,580.620423 323.116703,582.71388 328.072004,574.165881 C333.027305,565.617881 327.806355,554.648476 321.562923,552.274299 C315.319492,549.900123 310.965852,551.12493 307.022118,553.64146 Z" id="Path-98-Copy-2" stroke="#000000" stroke-width="2" fill="#FFFFFF"></path>
            <path d="M331.462838,541.605429 C328.591975,544.484519 325.515368,551.122679 328.7291,558.017177 C331.942833,564.911674 342.761733,564.288897 346.397468,558.017177 C350.033203,551.745456 347.173979,543.943972 343.597362,540.889084 C340.020746,537.834196 334.333701,538.726338 331.462838,541.605429 Z" id="Path-98-Copy-3" stroke="#000000" stroke-width="2" fill="#FFFFFF"></path>
            <path d="M296.318612,646.11792 C300.614709,650.89381 305.841838,653.281755 312,653.281755 C318.158162,653.281755 323.320244,650.89381 327.486249,646.11792" id="Path-97" stroke="#000000" stroke-width="2" stroke-linecap="round"></path>
            <path d="M292.19409,579.326487 L311.600894,572.345146 C309.484982,568.067556 306.390619,565.647014 302.317804,565.083519 C296.208581,564.238276 291,569.972872 291,574.857288 C291,578.113565 291.39803,579.603298 292.19409,579.326487 Z" id="Path-99" stroke="#000000" stroke-width="2" fill="#FFFFFF" stroke-linecap="round" stroke-linejoin="round"></path>
            <path d="M265.254626,575.938331 L288.908466,563.977711 C287.047514,559.388803 283.213882,556.714428 277.40757,555.954586 C268.698102,554.814822 262.575199,561.621591 262.575199,567.927505 C262.575199,572.131448 263.468341,574.801723 265.254626,575.938331 Z" id="Path-99" stroke="#000000" stroke-width="2" fill="#FFFFFF" stroke-linecap="round" stroke-linejoin="round"></path>
            <path d="M285.408233,554.949338 L309.062074,542.988718 C307.201121,538.39981 303.367489,535.725435 297.561178,534.965593 C288.85171,533.825829 282.728807,540.632599 282.728807,546.938513 C282.728807,551.142456 283.621949,553.812731 285.408233,554.949338 Z" id="Path-99" stroke="#000000" stroke-width="2" fill="#FFFFFF" stroke-linecap="round" stroke-linejoin="round" transform="translate(295.895440, 544.894508) rotate(21.000000) translate(-295.895440, -544.894508) "></path>
            <path d="M265.254626,575.938331 L288.908466,563.977711 C286.353158,561.667815 282.58895,560.512867 277.615843,560.512867 C270.156181,560.512867 266.359847,564.649447 265.254626,568.605938 C264.517812,571.243598 264.517812,573.687729 265.254626,575.938331 Z" id="Path-99" stroke="#000000" stroke-width="2" fill="#FFFFFF" stroke-linecap="round" stroke-linejoin="round"></path>
            <path d="M315.326658,583.734015 L342.90465,574.243927 C340.411661,567.955626 336.288422,564.694481 330.534932,564.460492 C321.904697,564.109508 314.887396,571.178011 314.887396,576.062428 C314.887396,579.318705 315.033816,581.875901 315.326658,583.734015 Z" id="Path-99-Copy-2" stroke="#000000" stroke-width="2" fill="#FFFFFF" stroke-linecap="round" stroke-linejoin="round" transform="translate(328.896023, 574.090962) rotate(-152.000000) translate(-328.896023, -574.090962) "></path>
            <path d="M338.211976,569.154026 L365.789967,559.663938 C363.622382,553.425495 359.661845,550.189279 353.908355,549.95529 C345.27812,549.604306 339.105278,557.116574 337.772713,561.482438 C336.884337,564.393014 337.030757,566.95021 338.211976,569.154026 Z" id="Path-99-Copy-3" stroke="#000000" stroke-width="2" fill="#FFFFFF" stroke-linecap="round" stroke-linejoin="round" transform="translate(351.495338, 559.548720) rotate(-315.000000) translate(-351.495338, -559.548720) "></path>
            <path d="M335.674397,568.521807 L363.252389,559.031719 C362.864808,556.961465 359.990907,555.976427 354.630684,556.076607 C346.59035,556.226877 341.867834,560.187352 339.762273,562.292914 C338.358565,563.696621 336.99594,565.772919 335.674397,568.521807 Z" id="Path-99-Copy-3" stroke="#000000" stroke-width="2" fill="#FFFFFF" stroke-linecap="round" stroke-linejoin="round" transform="translate(349.463393, 562.295739) rotate(-315.000000) translate(-349.463393, -562.295739) "></path>
            <path d="M293.562401,597.741933 L307.441712,592.994094 C307.973028,591.436347 306.202279,590.375725 302.129464,589.81223 C296.020241,588.966988 288.740514,589.048631 288.740514,593.933047 C288.740514,597.189325 290.34781,598.458953 293.562401,597.741933 Z" id="Path-99-Copy" stroke="#000000" stroke-width="2" stroke-linecap="round" stroke-linejoin="round"></path>
            <path d="M131.232851,812.124713 L67,812.124713 C58.7157288,812.124713 52,805.408984 52,797.124713 L52,58.9042818 C52,50.6200106 58.7157288,43.9042818 67,43.9042818 L568,43.9042818 C576.284271,43.9042818 583,50.6200106 583,58.9042818 L583,797.124713 C583,805.408984 576.284271,812.124713 568,812.124713 L491.354802,812.124713" id="Path-101" stroke="#000000" stroke-linecap="round" stroke-linejoin="round"></path>
        </g>
    </g>
</svg>