<?xml version="1.0" encoding="UTF-8"?>
<svg width="585px" height="535px" viewBox="0 0 585 535" version="1.1" xmlns="http://www.w3.org/2000/svg" xmlns:xlink="http://www.w3.org/1999/xlink">
    <!-- Generator: Sketch 51.3 (57544) - http://www.bohemiancoding.com/sketch -->
    <title>Group 5 Copy 2</title>
    <desc>Created with Sketch.</desc>
    <defs>
        <rect id="path-1" x="0" y="0" width="585" height="535"></rect>
        <rect id="path-3" x="0" y="0" width="296" height="213" rx="7"></rect>
    </defs>
    <g id="Page-1" stroke="none" stroke-width="1" fill="none" fill-rule="evenodd">
        <g id="Group-5-Copy-2">
            <g id="Group-Copy">
                <mask id="mask-2" fill="white">
                    <use xlink:href="#path-1"></use>
                </mask>
                <use id="Mask" fill="#FFFFFF" xlink:href="#path-1"></use>
                <g mask="url(#mask-2)" id="Group-15">
                    <g transform="translate(64.000000, 234.000000)">
                        <g>
                            <g id="Starbucks_Corporation_Logo_2011" transform="translate(53.000000, 20.000000)">
                                <mask id="mask-4" fill="white">
                                    <use xlink:href="#path-3"></use>
                                </mask>
                                <use id="Mask" fill="#FFFFFF" xlink:href="#path-3"></use>
                                <g mask="url(#mask-4)">
                                    <g transform="translate(35.000000, 43.000000)">
                                        <path d="M214,108 C214,167.647064 166.09418,216 107.00036,216 C47.90582,216 0,167.647786 0,108 C0,48.3536589 47.90582,0 107.00036,0 C166.094899,0 214,48.3536589 214,108 Z" id="path3040" fill="#FFFFFF" fill-rule="nonzero"></path>
                                        <g id="g4381" stroke-width="1" fill="none" fill-rule="evenodd" transform="translate(2.000000, 2.000000)">
                                            <path d="M103.974312,37.6581356 C107.683885,39.8167729 111.618753,42.5948203 114.614183,45.5388068 L113.437407,46.7325661 C107.526603,46.0981356 101.301237,46.889922 95.6979119,46.9771831 C95.0730373,46.3406068 93.814078,45.3835966 94.9866034,44.5839424 L103.974312,37.6581356 Z M208.48919,111.784939 C208.567831,114.478586 208.818631,116.791719 207.777881,119.548308 C196.979312,122.648936 189.886064,111.106163 179.408434,112.847092 L180.593003,118.830193 C190.286353,119.152058 196.340976,128.536193 206.355264,128.13279 C204.932647,131.001675 206.990058,138.559766 200.686759,135.538532 C194.143997,133.951383 189.413512,128.13279 182.243749,128.13279 C181.378702,129.73639 181.926353,131.956539 181.774739,133.853393 C189.338414,135.051444 194.778081,141.505183 202.339631,142.696797 C201.628322,145.320349 200.92339,148.257898 198.793715,149.857922 C192.642031,148.34659 187.837156,142.769037 181.288017,142.928539 L180.121868,148.422407 C186.345817,148.584054 190.367119,154.14301 195.960525,155.811698 C196.114264,158.129122 194.062522,160.199783 192.880786,162.268298 C187.915088,160.762688 184.128292,156.456142 178.454827,156.773715 C178.376186,154.615793 179.645064,152.165332 179.166136,149.857922 C172.794115,151.771227 168.521305,145.793847 163.798614,142.208278 C163.662586,130.474532 151.427231,122.776966 150.781102,111.784939 C150.657119,109.5934 150.987976,107.253803 151.977007,104.739685 C155.998308,95.3526881 154.735098,83.1654712 150.325553,74.4136203 C148.985827,72.1105017 146.611729,70.2923254 144.399163,68.9383492 C147.636183,75.8641559 151.580969,84.0473797 149.612119,92.5603356 C149.38399,99.1342373 145.541932,105.447786 145.498007,111.784939 C145.483129,114.044427 145.960641,116.303915 147.247939,118.585576 C152.374461,127.906769 161.597383,136.730146 158.1294,148.420261 C157.175793,152.010837 154.336227,154.787454 153.627753,158.441688 C159.62499,163.456336 165.29562,169.106844 173.253207,169.425132 C176.088522,167.596942 174.513583,159.489536 180.346454,163.228885 L188.863027,167.529708 C188.242403,169.831397 186.333773,171.89419 184.605095,173.479193 C181.373742,171.891329 178.221739,169.988037 174.192644,170.143247 C173.004532,171.415685 171.982203,172.844047 172.072888,174.670092 C174.908203,175.141444 177.509014,176.349508 179.877444,178.023203 C178.777892,180.414298 176.634756,181.912756 174.664488,183.743807 L168.057963,181.359149 C166.954868,182.952736 164.663661,184.627146 165.46778,186.375942 C166.95841,187.020386 168.61199,187.891566 169.709417,189.008078 C166.793336,192.190244 163.097224,194.237302 159.540681,196.397369 C156.477237,186.288681 146.3836,179.201227 147.250064,167.511112 L146.781054,167.038329 C144.408373,169.731261 145.201156,174.037807 145.354186,177.532539 C148.193753,184.854597 154.966769,190.510112 155.994058,198.539556 C154.808071,200.605925 152.134288,201.017912 150.083254,201.892668 C150.321302,187.415922 128.570424,176.436054 142.518871,161.792654 C147.170715,154.622231 154.964644,147.779393 152.20301,137.907454 C149.367695,128.375976 139.339237,122.470122 139.427797,111.784939 L139.443383,110.951668 C141.727505,99.808722 148.666305,87.9519525 142.990007,76.0980441 C141.407983,71.3301593 137.873403,65.9121085 133.065695,63.9194102 C140.233332,72.2020542 143.075024,85.7160678 138.974373,96.8611593 C136.907753,101.294305 134.062519,106.575742 133.777003,111.787085 L133.76,111.787085 C133.607678,114.508627 134.158163,117.215149 135.897468,119.781481 C141.339969,128.69641 150.792437,138.488956 145.354895,150.106831 C139.208169,159.412288 128.489658,168.877963 134.475559,181.134559 C138.810007,188.454471 145.51501,195.758647 143.706275,204.757261 L136.613027,207.141919 C141.342095,190.357763 118.167892,180.495837 127.869034,163.705959 C133.858478,154.715214 144.570614,146.279505 138.50678,134.346919 C134.881515,126.953336 127.390814,122.57741 127.627444,113.337756 L127.885329,111.786369 C130.326024,98.6821966 140.192949,86.2782576 133.293824,72.2750102 C131.480837,68.1401254 127.857698,63.9244169 123.836397,61.5354678 L123.59339,61.7808 C131.636702,69.6578949 134.083773,82.6183017 129.7472,93.0366949 C127.723797,99.1492576 123.283078,105.238217 122.380481,111.788515 C121.951146,114.876983 122.313176,118.077746 124.08082,121.449454 C129.203092,129.6384 138.185841,138.325163 132.58039,148.912356 C126.67738,157.657054 116.822498,166.165719 120.758783,177.537546 C125.094647,187.486732 134.148244,196.964566 129.259769,209.301271 L121.940519,210.969959 C127.770556,198.947251 119.028688,187.017525 113.907834,176.590549 C107.678217,161.631007 127.292336,154.467736 127.606898,140.790644 C127.532508,131.962976 118.236614,126.950475 116.272014,118.8352 C112.248586,115.408417 108.078505,120.197759 103.268671,119.308698 C99.7177966,120.028959 94.2639593,114.374159 92.1442034,120.503888 C89.6199085,129.490342 78.1199492,136.097146 83.1742068,146.755864 C87.9833322,156.227976 99.5569729,163.154498 95.6908271,175.412525 C92.2292203,186.862315 80.7944407,197.76422 87.8862712,210.969959 C84.9730237,210.017241 79.5326475,211.841139 79.6112881,207.142634 C75.1209763,191.150264 94.2696271,181.833363 88.3552814,165.849576 C85.6028576,156.059176 73.0621492,150.650424 75.8230746,138.875193 C77.8641898,129.182068 88.6379627,122.405749 87.1267864,111.7878 C87.0042203,110.898739 86.7874271,109.988936 86.4778237,109.040508 C82.456522,97.5828508 74.2523864,86.1223322 79.142278,72.749939 C80.4848373,68.9304814 83.1664136,65.668922 85.5228,62.2550136 C77.719661,66.470722 73.7833763,75.3849356 73.9449085,84.4536441 C73.6048407,94.3155695 80.8206542,102.763437 81.8472339,111.7878 C82.2510644,115.429875 81.6601966,119.15921 79.142278,123.115281 C74.0235492,130.127634 67.3291729,137.521217 70.3982847,146.754434 C73.3164915,156.067759 84.8221186,161.709685 84.1129356,172.535058 C84.0350034,185.340254 69.2966068,193.313193 73.4737729,207.634014 L66.1382271,205.231475 C63.2256881,192.505671 76.6215254,185.994712 76.7752644,174.220197 C78.6711424,160.679719 61.5650237,155.655773 62.5916034,142.456471 C62.517922,132.427892 71.2619153,126.076434 75.1238102,117.640725 C75.7862339,115.587946 76.0065695,113.648176 75.9180102,111.788515 C75.4447492,102.4616 67.1201729,95.1695831 68.5016983,84.6832407 C68.9664576,76.9656475 71.5672678,70.2007729 76.5343831,64.3964847 C69.6813085,67.1759627 66.8502441,75.1403186 64.9572,81.8250847 C61.6720034,92.5438847 69.5141085,102.185512 70.3005153,111.789231 C70.6490847,116.029973 69.6225051,120.246397 65.6699254,124.557234 C59.9922102,131.312095 54.2344373,139.835064 58.3336712,148.913786 C62.6744949,158.930922 76.311922,166.727908 70.3968678,179.221969 C67.1697661,187.100495 59.4424339,193.064285 59.7598305,202.370458 C57.712339,201.494986 55.5883322,200.622376 53.8483186,199.035227 C53.8483186,187.182034 70.5498983,179.778437 62.5923119,167.286522 C61.8873797,169.751288 61.7357661,173.100824 61.1838644,175.885308 C58.4222305,183.129403 52.5135525,188.927969 50.3024034,196.416681 C46.6048746,194.976159 42.7387288,191.949203 39.6632407,188.767037 L43.9232983,186.134902 C43.4500373,184.5406 42.191078,183.189485 41.0901085,181.836939 C38.3235153,181.444264 36.5069864,183.276746 34.2264068,183.994861 C32.256139,182.241058 30.3545932,180.648902 28.7839051,178.500993 C30.1980203,174.434773 41.2473898,177.797183 35.6497322,171.111702 C31.8707288,168.726329 28.0775559,172.1338 24.7682712,173.724525 L20.2822102,168.003922 C24.1441051,165.619264 27.9960814,162.269729 32.799539,163.230315 C33.9834,165.382515 34.0655831,168.547515 36.3461627,169.67118 C44.4652814,169.511678 50.2180949,163.311854 56.4420441,158.456708 C52.1040542,151.940027 48.5730169,142.943559 52.4264102,135.062888 C55.5139424,127.165766 63.5586712,120.514617 63.9235356,111.784224 C64.0057186,109.797247 63.6989492,107.706559 62.8381525,105.456369 C58.5844712,94.3949627 57.0832136,79.4454339 65.2023322,69.6550339 C60.7878271,70.8523695 58.1848915,76.4070339 56.6850508,80.6248881 C51.8043695,91.4259424 57.9773085,101.432349 58.1905593,111.783508 C58.2196068,113.645315 58.0701186,115.511414 57.6230712,117.391102 C53.4444881,125.904058 46.6743051,133.373458 45.5747525,143.16958 C40.7656271,146.266631 36.8172983,151.682536 29.9649322,149.855061 C29.7240508,151.683251 30.2759525,154.469881 30.9043695,156.540542 C25.4703695,156.310231 21.7650475,160.353563 17.1897186,162.263292 C14.7525661,161.473651 14.1184814,158.292915 13.1747932,156.067044 C18.5301525,154.241 22.3934644,148.820803 28.5423153,148.906634 C29.2550407,146.907498 28.1427356,145.075732 27.8288814,143.168149 C20.1801898,139.740651 8.05606441,160.111092 7.03656949,142.450034 C14.6795932,141.972244 19.5638169,134.809688 27.1331593,134.095864 L27.3591627,128.375261 C18.7689085,127.499075 13.2428068,136.414719 4.65609492,135.535671 L2.76234237,127.901763 C12.6951559,128.528325 18.6130441,119.541871 28.0725966,119.058359 C29.3294305,117.389671 29.4810441,114.922759 29.7233424,112.617495 C19.3980339,111.259227 12.3125797,122.811298 1.35389492,119.302976 C1.35389492,119.302976 0.976277966,114.495037 0.771528814,111.784224 L0.78640678,111.784224 C0.712016949,110.724217 0.641169492,109.985359 0.641169492,109.985359 C10.4131593,113.8134 18.9991627,106.727376 27.3591627,103.069566 C29.4852949,102.427268 32.8009559,103.540919 33.7545627,101.156261 C33.6716712,99.3259254 36.978122,97.1858847 34.2256983,95.9084407 C22.0038034,94.2340305 13.8846847,109.116325 1.35247797,102.349305 L0.412332203,100.436 C3.01951864,64.4765932 23.1076068,29.7109458 56.4420441,12.6027797 C69.9427356,4.81366102 86.7151627,0.843284746 103.629993,0.702379661 C124.043271,0.531433898 144.6698,5.93732542 160.013942,16.9028881 C174.91458,26.1303831 189.167671,41.3374034 196.902797,56.7747356 C204.300688,70.3001932 207.705617,85.4771729 208.722278,101.634766 C195.794034,111.496692 187.120888,92.3436136 173.956014,96.6301322 C174.665197,98.702939 175.057692,100.847271 176.562492,102.597498 C188.230359,102.514529 196.265169,114.848373 208.478563,109.987505 L208.48919,111.784939 Z M59.9844169,67.4978271 C51.7866576,62.0854983 41.3933356,67.1816847 33.7531458,70.1292475 C33.0439627,62.8851525 30.1300068,56.2855017 24.0541288,51.5118949 C23.464678,51.2157797 22.6499322,50.5927932 21.9159525,50.5470169 C21.4766983,50.519122 21.0586983,50.6979356 20.7342169,51.2651322 C23.4880576,68.3690068 12.4748203,80.303739 4.67026441,93.2784508 C7.26894915,95.4227831 11.4439898,95.1023492 14.5959932,94.4722102 C22.8695593,91.1319729 30.7506305,85.3183864 40.6019695,87.3110847 C43.5152169,82.2985831 48.4100678,77.4434373 52.4235763,73.4651932 C54.8756068,71.3230068 58.2444034,69.9625932 59.9844169,67.4978271 Z M85.0516644,78.2395153 C84.8943831,79.2694814 85.1303051,81.105539 86.7031186,80.3960068 C89.1501898,76.9749458 93.4825119,79.6814678 96.1605458,79.9225085 L96.1605458,78.9597763 C94.6911695,76.6301932 91.6681085,75.4600373 88.5982881,75.5766237 C87.8898136,75.6016576 87.1700034,75.7060847 86.4771153,75.8684475 C85.4498271,76.0987593 84.7349763,77.0479017 85.0516644,78.2395153 Z M111.767532,59.8646339 C109.523793,59.5856847 107.195037,59.3968576 104.88541,59.3746847 C104.452532,59.3703932 104.020363,59.3646712 103.58961,59.3746847 C97.1290305,59.5062915 90.9560915,61.1807017 87.1848814,66.5494 C86.6436068,68.0650237 84.2638407,70.1936203 86.4735729,71.5518881 C91.4392712,71.2314542 97.1056508,70.6027458 100.415644,74.905 C100.415644,78.7280339 102.86059,83.8142068 98.7641898,85.6445424 C95.3698881,82.4716746 91.3500034,86.9949424 87.6567254,84.4486373 C85.9202542,83.4129492 84.8214102,84.6217288 84.1101017,86.133061 C83.083522,95.9971322 88.1994169,106.883302 97.3401559,112.371447 C101.044769,113.720417 106.024637,115.003583 109.890783,113.089563 C119.19022,108.717929 123.042197,98.6986475 124.773708,89.4675763 C124.541329,87.7109119 124.62422,84.2877051 122.182817,84.2047356 C119.426142,85.9649763 115.405549,84.9249966 112.4838,84.2047356 C110.756539,84.7676407 110.67719,87.3189525 108.711173,87.8024644 L107.513142,86.8375864 C106.487271,82.4680983 105.854603,76.2596915 109.878031,73.2363119 C114.37401,71.4059763 119.654271,70.606322 124.30399,72.0425525 C125.171871,70.5319356 123.832146,69.3424678 123.589847,67.9892068 C121.389325,63.0546678 116.344986,61.057678 111.767532,59.8646339 Z M118.845193,75.8348305 C118.532756,75.8426983 118.22882,75.8584339 117.921342,75.8684475 C116.269888,76.9806678 111.45722,76.1810136 113.1944,79.9225085 C116.191247,77.5292678 120.368414,79.206539 123.363136,80.3960068 C124.470481,79.8409695 124.230308,78.7266034 124.303281,77.7660169 C123.341881,75.96 121.044298,75.7904847 118.845193,75.8348305 Z M153.159451,42.1935627 C147.325871,41.8809966 142.440939,45.2240949 137.08062,46.7368576 C136.613736,42.1320508 140.078885,37.2690373 140.869542,32.6463492 C132.202773,33.2092542 125.338363,38.4756712 118.1686,42.6827966 C116.509353,38.6351729 114.845146,34.5668068 113.197234,30.5041627 L122.654661,21.4311627 L122.896959,20.2359729 L110.122454,19.5178576 C107.921932,15.6254441 107.054759,10.9369525 104.453949,7.35638983 C102.325692,11.4140271 100.89599,15.7084136 98.7698576,19.7624746 L86.0102305,20.4827356 L86.0102305,21.4311627 L95.6943695,30.2588305 C94.5105085,34.7964034 93.4102475,39.7266508 90.497,43.1562949 C84.8228271,39.7252203 79.2294203,35.990878 73.0083051,33.6083661 C71.5112983,33.1205627 69.3773729,32.3273458 68.0376475,33.3637492 C70.0050814,37.7411051 72.760339,42.4496237 72.2969966,47.227522 C69.6947695,46.7440102 67.6494034,45.0595864 65.2044576,44.3514847 C62.2805831,43.5461085 58.8111831,41.9725492 55.9744508,42.9295593 C60.7042271,49.6093186 64.5647051,56.6002136 65.9001797,64.6389559 C81.5907661,56.9936034 99.8892475,52.7886237 118.883451,56.0559051 C127.786851,57.4864136 135.973983,61.1478 143.935112,64.1640271 C144.246132,55.7347559 149.526393,48.9612983 153.159451,42.1935627 Z M180.104156,88.0299153 C188.136841,90.1763932 196.195031,99.0119288 204.700976,93.2791661 C197.293166,80.8687898 186.267176,69.4082712 189.333454,53.1791525 C189.654393,52.0712237 188.94521,50.9497051 187.925007,50.7923492 C183.119424,52.7750339 179.397807,57.555078 177.496261,62.2535831 C176.714105,65.0323458 176.250763,67.9863458 175.149085,70.6056068 C169.39202,67.5807966 163.248837,64.6504 156.234939,65.3585017 C153.705685,65.6767898 150.079712,65.8441593 149.612827,68.4655661 C157.572539,72.7599525 164.118136,79.9268 168.995983,87.5585627 C172.39241,86.9992339 176.557532,87.4770237 180.104156,88.0299153 Z M95.9331254,99.2458169 L96.1598373,100.684193 C99.2395763,102.755569 100.186807,106.266037 104.450407,105.947034 C108.231536,106.173769 111.068268,102.597498 112.952102,99.7350508 C107.835498,99.0219424 101.609424,100.12558 95.9331254,99.2458169 Z M100.191058,92.8049525 C100.344797,93.4422441 99.8006881,94.3971085 100.660068,94.7189729 C103.182237,94.1660814 107.75119,96.0736644 109.159637,93.0502847 C108.176275,91.9380644 106.570871,91.4330949 104.886119,91.4330949 C103.202075,91.4330949 101.454268,91.9287661 100.191058,92.8049525 Z" id="inner_artwork" stroke="#000000" stroke-width="2" fill-rule="nonzero"></path>
                                            <g id="g4377" transform="translate(95.644068, 89.406780)" fill-rule="nonzero">
                                                <polygon id="rect3815" fill="#FFFFFF" opacity="0.99" points="0.294725424 0.637291525 17.5758373 0.637291525 17.5758373 7.80485424 0.294725424 7.80485424"></polygon>
                                                <path d="M3.48711186,4.46962373 C5.72022373,5.00320339 6.2728339,5.80285763 8.03764407,6.02601695 C9.91368475,5.9924 9.64304746,5.60759322 12.9154915,4.46747797 C13.1301593,4.39094576 13.4255932,3.91244068 13.0593119,3.54551525 C11.0274068,1.50918644 9.62321017,2.96401356 8.34937288,3.00263729 C6.65966102,3.0212339 5.07480339,1.54208814 3.42405763,3.46469153 C3.14279322,3.85522034 2.99613898,4.23859661 3.48711186,4.46962373 Z" id="path3032-6" stroke="#000000" stroke-width="2"></path>
                                            </g>
                                        </g>
                                    </g>
                                </g>
                            </g>
                            <path d="M34,257 L365,257 L365,3 C365,2.44771525 364.552285,2 364,2 L48,2 C40.2680135,2 34,8.2680135 34,16 L34,257 Z" id="Rectangle-3" stroke="#000000" stroke-width="2"></path>
                            <rect id="Rectangle-2" stroke="#000000" stroke-width="2" x="54" y="21" width="294" height="211" rx="7"></rect>
                            <path d="M382.073758,257 L420,257 L420,13 L394.073758,13 C387.446341,13 382.073758,18.372583 382.073758,25 L382.073758,257 Z" id="Rectangle-3" stroke="#000000" stroke-width="2" transform="translate(401.036879, 135.000000) scale(-1, 1) translate(-401.036879, -135.000000) "></path>
                            <path d="M1.85638512,257 L34.7989801,307 L419.872299,307 L455.073023,257 L1.85638512,257 Z" id="Rectangle-3" stroke="#000000" stroke-width="2" transform="translate(228.500000, 282.000000) scale(1, -1) translate(-228.500000, -282.000000) "></path>
                            <path d="M365.007114,2.57962839 L365.007114,256.790893 L382,256.988315 L382,13.1561617 L365.007114,2.57962839 Z" id="Rectangle-3" stroke="#000000" stroke-width="2"></path>
                            <rect id="Rectangle-5" fill="#FFFFFF" x="388" y="227" width="28" height="2" rx="1"></rect>
                        </g>
                    </g>
                </g>
            </g>
            <path d="M65.8640873,509 L45,509 C36.7157288,509 30,502.284271 30,494 L30,39.266292 C30,30.9820207 36.7157288,24.266292 45,24.266292 L539,24.266292 C547.284271,24.266292 554,30.9820207 554,39.266292 L554,494 C554,502.284271 547.284271,509 539,509 L519.462638,509" id="Path-94" stroke="#000000" stroke-linecap="round"></path>
        </g>
    </g>
</svg>