<?xml version="1.0" encoding="UTF-8"?>
<svg width="1840px" height="381px" viewBox="0 0 1840 381" version="1.1" xmlns="http://www.w3.org/2000/svg" xmlns:xlink="http://www.w3.org/1999/xlink">
    <!-- Generator: Sketch 51.3 (57544) - http://www.bohemiancoding.com/sketch -->
    <title>Group 3</title>
    <desc>Created with Sketch.</desc>
    <defs></defs>
    <g id="Page-1" stroke="none" stroke-width="1" fill="none" fill-rule="evenodd">
        <g id="Desktop-Copy-3" transform="translate(-183.000000, -1138.000000)">
            <g id="Group-3" transform="translate(172.000000, 1133.000000)">
                <circle id="Oval-10" fill="#09B458" cx="128.5" cy="39.5" r="6.5"></circle>
                <circle id="Oval-10-Copy-2" fill="#09B458" cx="128.5" cy="14.5" r="6.5"></circle>
                <circle id="Oval-10" fill="#09B458" cx="128.5" cy="64.5" r="6.5"></circle>
                <circle id="Oval-10-Copy-7" fill="#09B458" cx="1466.5" cy="12.5" r="6.5"></circle>
                <circle id="Oval-10-Copy-10" fill="#09B458" cx="1466.5" cy="43.5" r="6.5"></circle>
                <circle id="Oval-10-Copy-8" fill="#09B458" cx="1181.5" cy="12.5" r="6.5"></circle>
                <circle id="Oval-10-Copy-9" fill="#09B458" cx="1181.5" cy="43.5" r="6.5"></circle>
                <path d="M977.91489,181 L1082.5,181" id="Path-25" stroke="#C1C1C1" stroke-width="3" stroke-dasharray="5"></path>
                <path d="M1256.33448,181 L1356.75558,181" id="Path-25" stroke="#C1C1C1" stroke-width="3" stroke-dasharray="5"></path>
                <path d="M1547.33448,181 L1647.75558,181" id="Path-25-Copy-3" stroke="#C1C1C1" stroke-width="3" stroke-dasharray="5"></path>
                <path d="M606,178.25 L661.5,178.25" id="Path-25" stroke="#C1C1C1" stroke-width="3" stroke-dasharray="5"></path>
                <path d="M255,179.25 L299.5,179.25" id="Path-25-Copy" stroke="#C1C1C1" stroke-width="3" stroke-dasharray="5"></path>
                <path d="M332,178.208333 L388.5,178.208333" id="Path-25-Copy-2" stroke="#C1C1C1" stroke-width="3" stroke-dasharray="5"></path>
                <path d="M698.748529,177.25 L766.5,177.25" id="Path-25" stroke="#C1C1C1" stroke-width="3" stroke-dasharray="5"></path>
                <path d="M45.2042581,197 L210.575501,197 C202.516021,235.270533 168.558014,264 127.889879,264 C87.2217452,264 53.2637377,235.270533 45.2042581,197 Z M45,163 C52.6739729,124.231024 86.8682904,95 127.889879,95 C168.911468,95 203.105786,124.231024 210.779759,163 L45,163 Z" id="Combined-Shape-Copy-2" fill="#E2B644" opacity="0.301060268"></path>
                <path d="M406.204258,197 L571.575501,197 C563.516021,235.270533 529.558014,264 488.889879,264 C448.221745,264 414.263738,235.270533 406.204258,197 Z M406,163 C413.673973,124.231024 447.86829,95 488.889879,95 C529.911468,95 564.105786,124.231024 571.779759,163 L406,163 Z" id="Combined-Shape-Copy-3" fill="#E2B644" opacity="0.301060268"></path>
                <text id="Understand-Context" font-family="OpenSans, Open Sans" font-size="25" font-weight="normal" fill="#000000">
                    <tspan x="9.79980469" y="189">Understand Context</tspan>
                </text>
                <text id="Understand-Users" font-family="OpenSans, Open Sans" font-size="25" font-weight="normal" fill="#000000">
                    <tspan x="387.903076" y="186">Understand Users</tspan>
                </text>
                <path d="M787.204258,198 L952.575501,198 C944.516021,236.270533 910.558014,265 869.889879,265 C829.221745,265 795.263738,236.270533 787.204258,198 Z M787,164 C794.673973,125.231024 828.86829,96 869.889879,96 C910.911468,96 945.105786,125.231024 952.779759,164 L787,164 Z" id="Combined-Shape" fill="#E2B644" opacity="0.301060268"></path>
                <text id="Ideation" font-family="OpenSans, Open Sans" font-size="25" font-weight="normal" fill="#000000">
                    <tspan x="824.093506" y="188">Ideation</tspan>
                </text>
                <path d="M1100.20426,199 L1265.5755,199 C1257.51602,237.270533 1223.55801,266 1182.88988,266 C1142.22175,266 1108.26374,237.270533 1100.20426,199 Z M1100,165 C1107.67397,126.231024 1141.86829,97 1182.88988,97 C1223.91147,97 1258.10579,126.231024 1265.77976,165 L1100,165 Z" id="Combined-Shape" fill="#E2B644" opacity="0.301060268"></path>
                <text id="user-feedback" font-family="OpenSans, Open Sans" font-size="18" font-weight="normal" fill="#262626">
                    <tspan x="961.928711" y="94">user feedback</tspan>
                </text>
                <path d="M947,111 L872,111 L872,108 L947,108 L947,101 L958,109 L947,117 L947,111 Z" id="Combined-Shape" fill="#09B458"></path>
                <path d="M1151,111 L1076,111 L1076,108 L1151,108 L1151,101 L1162,109 L1151,117 L1151,111 Z" id="Combined-Shape" fill="#09B458" transform="translate(1119.000000, 109.000000) rotate(-180.000000) translate(-1119.000000, -109.000000) "></path>
                <rect id="Rectangle-28" fill="#09B458" x="975" y="103" width="92" height="12" rx="6"></rect>
                <text id="user-tests" font-family="OpenSans, Open Sans" font-size="18" font-weight="normal" fill="#262626">
                    <tspan x="1292.13086" y="94">user tests</tspan>
                </text>
                <text id="heuristic-evaluation-copy" font-family="OpenSans, Open Sans" font-size="18" font-weight="normal" fill="#262626">
                    <tspan x="1536.68701" y="271">heuristic evaluations</tspan>
                </text>
                <text id="user-tasks" font-family="OpenSans, Open Sans" font-size="18" font-weight="normal" fill="#262626">
                    <tspan x="1580.62793" y="295">user tasks</tspan>
                </text>
                <path d="M1271,109 L1196,109 L1196,106 L1271,106 L1271,99 L1282,107 L1271,115 L1271,109 Z" id="Combined-Shape" fill="#09B458"></path>
                <path d="M1562,243 L1487,243 L1487,240 L1562,240 L1562,233 L1573,241 L1562,249 L1562,243 Z" id="Combined-Shape-Copy-6" fill="#09B458"></path>
                <path d="M1453,110 L1378,110 L1378,107 L1453,107 L1453,100 L1464,108 L1453,116 L1453,110 Z" id="Combined-Shape" fill="#09B458" transform="translate(1421.000000, 108.000000) rotate(-180.000000) translate(-1421.000000, -108.000000) "></path>
                <path d="M1744,244 L1669,244 L1669,241 L1744,241 L1744,234 L1755,242 L1744,250 L1744,244 Z" id="Combined-Shape-Copy-7" fill="#09B458" transform="translate(1712.000000, 242.000000) rotate(-180.000000) translate(-1712.000000, -242.000000) "></path>
                <rect id="Rectangle-28" fill="#09B458" x="1300" y="103" width="63" height="12" rx="6"></rect>
                <rect id="Rectangle-28-Copy-2" fill="#09B458" x="1591" y="237" width="63" height="12" rx="6"></rect>
                <text id="Low-fi-Protoype" font-family="OpenSans, Open Sans" font-size="25" font-weight="normal" fill="#000000">
                    <tspan x="1091.71021" y="189">Low-fi Protoype</tspan>
                </text>
                <path d="M1381.20426,198 L1546.5755,198 C1538.51602,236.270533 1504.55801,265 1463.88988,265 C1423.22175,265 1389.26374,236.270533 1381.20426,198 Z M1381,164 C1388.67397,125.231024 1422.86829,96 1463.88988,96 C1504.91147,96 1539.10579,125.231024 1546.77976,164 L1381,164 Z" id="Combined-Shape" fill="#E2B644" opacity="0.301060268"></path>
                <path d="M1672.20426,198 L1837.5755,198 C1829.51602,236.270533 1795.55801,265 1754.88988,265 C1714.22175,265 1680.26374,236.270533 1672.20426,198 Z M1672,164 C1679.67397,125.231024 1713.86829,96 1754.88988,96 C1795.91147,96 1830.10579,125.231024 1837.77976,164 L1672,164 Z" id="Combined-Shape-Copy" fill="#E2B644" opacity="0.301060268"></path>
                <text id="High-fi-Prototype" font-family="OpenSans, Open Sans" font-size="25" font-weight="normal" fill="#000000">
                    <tspan x="1364.65356" y="189">High-fi Prototype</tspan>
                </text>
                <text id="Design-Outcome" font-family="OpenSans, Open Sans" font-size="25" font-weight="normal" fill="#000000">
                    <tspan x="1658.52124" y="192">Design Outcome</tspan>
                </text>
                <text id="Design-Iteration" font-family="OpenSans, Open Sans" font-size="25" font-weight="normal" fill="#000000">
                    <tspan x="1369.9707" y="371">Design Iteration</tspan>
                </text>
                <text id="affinity-mapping-onl" font-family="OpenSans, Open Sans" font-size="18" font-weight="normal" fill="#000000">
                    <tspan x="146" y="20">affinity mapping</tspan>
                    <tspan x="146" y="44">online survey (250)</tspan>
                    <tspan x="146" y="68">literature review</tspan>
                </text>
                <text id="Axure" font-family="OpenSans, Open Sans" font-size="18" font-weight="normal" fill="#000000">
                    <tspan x="1483" y="19">Axure</tspan>
                </text>
                <text id="Physical-prototype" font-family="OpenSans, Open Sans" font-size="18" font-weight="normal" fill="#000000">
                    <tspan x="1483" y="50">Physical prototype</tspan>
                </text>
                <text id="Sketch" font-family="OpenSans, Open Sans" font-size="18" font-weight="normal" fill="#000000">
                    <tspan x="1198" y="19">Sketch</tspan>
                </text>
                <text id="Flow-chart" font-family="OpenSans, Open Sans" font-size="18" font-weight="normal" fill="#000000">
                    <tspan x="1198" y="50">Flow chart</tspan>
                </text>
                <text id="Narrow-down-the-focu" font-family="SourceHanSansCN-Bold, Source Han Sans CN" font-size="18" font-weight="bold" fill="#09B458">
                    <tspan x="244" y="223">NARROW DOWN </tspan>
                    <tspan x="244" y="241">THE FOCUS</tspan>
                </text>
                <text id="Identify-user-needs" font-family="SourceHanSansCN-Bold, Source Han Sans CN" font-size="18" font-weight="bold" fill="#09B458">
                    <tspan x="610" y="223">IDENTIFY USER </tspan>
                    <tspan x="610" y="241">NEEDS</tspan>
                </text>
                <text id="Finalize-concept" font-family="SourceHanSansCN-Bold, Source Han Sans CN" font-size="18" font-weight="bold" fill="#09B458">
                    <tspan x="988" y="223">FINALIZE </tspan>
                    <tspan x="988" y="241">CONCEPT</tspan>
                </text>
                <circle id="Oval-10" fill="#09B458" cx="484.5" cy="327.5" r="6.5"></circle>
                <circle id="Oval-10-Copy-5" fill="#09B458" cx="484.5" cy="303.5" r="6.5"></circle>
                <circle id="Oval-10-Copy" fill="#09B458" cx="314" cy="181" r="18"></circle>
                <circle id="Oval-10-Copy-3" fill="#09B458" cx="680" cy="181" r="18"></circle>
                <circle id="Oval-10-Copy-6" fill="#09B458" cx="1033" cy="181" r="18"></circle>
                <circle id="Oval-10" fill="#09B458" cx="484.5" cy="353.5" r="6.5"></circle>
                <circle id="Oval-10-Copy-4" fill="#09B458" cx="484.5" cy="377.5" r="6.5"></circle>
                <text id="non-intrusive-observ" font-family="OpenSans, Open Sans" font-size="18" font-weight="normal" fill="#000000">
                    <tspan x="497" y="309">non-intrusive observations</tspan>
                    <tspan x="497" y="333">semi-structured interviews</tspan>
                    <tspan x="497" y="357">persona creation</tspan>
                    <tspan x="497" y="381">affinity mapping</tspan>
                </text>
                <text id="brainstorm-sketches" font-family="OpenSans, Open Sans" font-size="18" font-weight="normal" fill="#000000">
                    <tspan x="885" y="302">brainstorm</tspan>
                    <tspan x="885" y="326">sketches</tspan>
                </text>
                <path d="M128,97.227482 L128,12.5" id="Path-26" stroke="#09B458"></path>
                <path d="M1466,97.227482 L1466,12.5" id="Path-26-Copy" stroke="#09B458"></path>
                <path d="M1181,97.227482 L1181,12.5" id="Path-26-Copy-2" stroke="#09B458"></path>
                <path d="M485,376.5 L485,262" id="Path-26" stroke="#09B458"></path>
                <circle id="Oval-10" fill="#09B458" cx="869.5" cy="295.5" r="6.5"></circle>
                <circle id="Oval-10" fill="#09B458" cx="869.5" cy="320.5" r="6.5"></circle>
                <path d="M870,319.5 L870,265.5" id="Path-26" stroke="#09B458"></path>
                <path d="M1170,346 L1170,346 C1170,306.235498 1202.2355,274 1242,274 L1691,274 C1730.7645,274 1763,306.235498 1763,346" id="Path-2" stroke="#F4DB98" stroke-width="3" transform="translate(1466.500000, 310.000000) scale(1, -1) translate(-1466.500000, -310.000000) "></path>
            </g>
        </g>
    </g>
</svg>